<?xml version="1.0" standalone="no"?>
<!DOCTYPE svg PUBLIC "-//W3C//DTD SVG 20010904//EN"
 "http://www.w3.org/TR/2001/REC-SVG-20010904/DTD/svg10.dtd">
<svg version="1.0" xmlns="http://www.w3.org/2000/svg"
 width="350.000000pt" height="350.000000pt" viewBox="0 0 350.000000 350.000000"
 preserveAspectRatio="xMidYMid meet">

<g transform="translate(0.000000,350.000000) scale(0.100000,-0.100000)"
fill="#000000" stroke="none">
<path d="M1615 3344 c-235 -36 -415 -108 -577 -229 -578 -434 -628 -1278 -106
-1772 462 -436 1186 -429 1638 17 326 321 430 795 271 1231 -136 371 -459 646
-866 734 -70 16 -303 28 -360 19z m250 -185 c327 -40 618 -246 765 -544 79
-160 94 -227 94 -435 0 -161 -3 -182 -27 -263 -105 -342 -369 -597 -706 -684
-276 -70 -562 -22 -801 136 -75 49 -203 173 -256 247 -282 395 -229 940 123
1274 223 212 504 306 808 269z"/>
<path d="M1430 2670 l0 -100 40 0 40 0 0 100 0 100 -40 0 -40 0 0 -100z"/>
<path d="M1960 2670 l0 -100 40 0 40 0 0 100 0 100 -40 0 -40 0 0 -100z"/>
<path d="M1264 2631 c-54 -33 -55 -42 -52 -465 l3 -388 33 -29 32 -29 456 0
456 0 34 34 34 34 0 396 0 396 -28 31 c-24 27 -37 33 -85 37 l-57 4 0 -56 0
-56 -90 0 -90 0 0 55 0 55 -170 0 -170 0 0 -55 0 -55 -95 0 -95 0 0 55 0 55
-42 0 c-24 0 -56 -8 -74 -19z m884 -563 l-3 -233 -407 -3 -408 -2 0 235 0 235
410 0 410 0 -2 -232z"/>
<path d="M599 457 c-66 -44 -87 -132 -50 -214 23 -50 67 -76 129 -76 107 0
171 131 116 238 -37 72 -129 96 -195 52z m135 -42 c43 -46 42 -149 -1 -188
-46 -41 -119 -25 -143 33 -20 49 -8 129 24 157 37 32 90 31 120 -2z"/>
<path d="M919 457 c-66 -44 -87 -132 -50 -214 23 -50 67 -76 129 -76 107 0
171 131 116 238 -37 72 -129 96 -195 52z m135 -42 c43 -46 42 -149 -1 -188
-46 -41 -119 -25 -143 33 -20 49 -8 129 24 157 37 32 90 31 120 -2z"/>
<path d="M2359 457 c-66 -44 -87 -132 -50 -214 23 -50 67 -76 129 -76 107 0
171 131 116 238 -37 72 -129 96 -195 52z m135 -42 c43 -46 42 -149 -1 -188
-46 -41 -119 -25 -143 33 -20 49 -8 129 24 157 37 32 90 31 120 -2z"/>
<path d="M2689 457 c-66 -44 -87 -132 -50 -214 23 -50 67 -76 129 -76 107 0
171 131 116 238 -37 72 -129 96 -195 52z m135 -42 c43 -46 42 -149 -1 -188
-46 -41 -119 -25 -143 33 -20 49 -8 129 24 157 37 32 90 31 120 -2z"/>
<path d="M230 320 l0 -150 84 0 c92 0 141 13 156 40 17 33 11 79 -13 104 -23
23 -23 24 -5 46 23 29 23 51 -3 84 -20 25 -24 26 -120 26 l-99 0 0 -150z m186
85 c10 -40 -11 -55 -77 -55 l-59 0 0 40 0 40 65 0 c61 0 65 -2 71 -25z m2
-107 c15 -15 15 -61 0 -76 -7 -7 -39 -12 -75 -12 l-63 0 0 50 0 50 63 0 c36 0
68 -5 75 -12z"/>
<path d="M1190 320 l0 -150 25 0 c24 0 25 3 25 54 0 47 3 56 26 71 15 9 29 13
33 8 3 -5 25 -37 49 -71 36 -53 47 -62 73 -62 35 0 37 -5 -38 99 -29 41 -53
79 -53 85 0 6 23 34 52 63 l52 53 -31 0 c-26 0 -41 -11 -88 -65 -32 -36 -61
-65 -66 -65 -5 0 -9 29 -9 65 0 63 -1 65 -25 65 l-25 0 0 -150z"/>
<path d="M1652 388 c-16 -46 -42 -114 -56 -151 l-26 -68 27 3 c20 2 29 11 38
38 12 35 12 35 77 38 l65 3 12 -41 c10 -33 16 -40 36 -40 14 0 25 3 25 8 0 4
-24 70 -54 147 -51 134 -55 140 -83 143 -29 3 -31 0 -61 -80z m104 -80 c5 -16
-2 -18 -44 -18 l-50 0 19 53 c11 28 22 59 25 67 5 13 28 -34 50 -102z"/>
<path d="M2000 320 l0 -150 25 0 c23 0 24 4 27 63 l3 62 50 3 c67 4 84 -10 92
-75 5 -50 7 -53 34 -53 26 0 27 1 18 32 -5 18 -9 45 -9 60 0 16 -8 33 -19 40
-18 11 -18 12 1 28 15 12 21 28 21 60 0 68 -22 80 -144 80 l-99 0 0 -150z
m191 86 c23 -49 -18 -81 -97 -74 -39 3 -39 3 -42 51 l-3 47 66 0 c59 0 66 -2
76 -24z"/>
<path d="M2950 320 l0 -150 25 0 24 0 3 118 3 117 41 -115 c36 -100 45 -115
64 -115 19 0 28 15 64 115 l41 115 3 -117 3 -118 24 0 25 0 0 150 0 150 -37 0
-38 0 -40 -114 c-21 -63 -42 -113 -46 -110 -4 2 -24 54 -44 114 l-37 110 -39
0 -39 0 0 -150z"/>
</g>
</svg>
