<?xml version="1.0" encoding="UTF-8"?>
<!-- Generator: visioncortex VTracer 0.6.2 -->
<svg version="1.1" xmlns="http://www.w3.org/2000/svg" width="1280" height="629">
<path d="M0 0 C422.4 0 844.8 0 1280 0 C1280 207.57 1280 415.14 1280 629 C857.6 629 435.2 629 0 629 C0 421.43 0 213.86 0 0 Z " fill="#00C6F5" transform="translate(0,0)"/>
<path d="M0 0 C0.7429834 0.36867188 1.4859668 0.73734375 2.25146484 1.1171875 C22.92262787 11.47955144 42.24797008 25.08412992 59 41 C60.32728115 42.15283848 61.66027994 43.29914067 63 44.4375 C71.91048299 52.2182285 79.6599602 60.74305725 87 70 C87.9209046 71.10996227 88.84419811 72.21794568 89.76953125 73.32421875 C126.91794894 118.10815229 150.91580637 178.00403576 151.203125 236.51171875 C151.21013931 237.47478943 151.21715363 238.43786011 151.22438049 239.43011475 C151.24176645 242.51595808 151.24823155 245.60160951 151.25 248.6875 C151.25101212 250.26943649 151.25101212 250.26943649 151.25204468 251.8833313 C151.23650839 267.14998818 150.85755387 281.96229702 148 297 C147.82839355 297.96196289 147.65678711 298.92392578 147.47998047 299.91503906 C138.56692965 349.34702597 116.68657747 397.26472447 82 434 C80.95380771 435.22531703 79.91209828 436.45447636 78.875 437.6875 C69.82982873 448.03685876 59.88473895 457.61503705 49 466 C47.73641473 467.00319572 46.47343816 468.00715842 45.2109375 469.01171875 C-14.66783969 516.22818714 -90.04132187 534.46118444 -165.18505859 525.62548828 C-229.97695549 516.9662764 -297.86917908 483.59251962 -339.375 431.75 C-342.74704846 427.55196182 -342.74704846 427.55196182 -346.1875 423.41015625 C-380.00101086 383.2566121 -399.76466001 331.76040756 -406 280 C-406.103125 279.16146484 -406.20625 278.32292969 -406.3125 277.45898438 C-407.27807617 268.45843511 -407.2436321 259.41710108 -407.25 250.375 C-407.25067474 249.51139862 -407.25134949 248.64779724 -407.25204468 247.75802612 C-407.23419586 233.32167146 -406.48213626 219.24785303 -404 205 C-403.75056641 203.54013672 -403.75056641 203.54013672 -403.49609375 202.05078125 C-394.28631155 149.86201547 -370.326383 100.54208052 -334.35546875 61.578125 C-332.42638235 59.46668715 -330.5809408 57.32028418 -328.75 55.125 C-319.45030298 44.47499568 -308.31850435 35.40667766 -297 27 C-296.35724121 26.52208008 -295.71448242 26.04416016 -295.05224609 25.55175781 C-215.1724155 -33.34384511 -108.97224153 -47.53337504 0 0 Z " fill="#F9FCFE" transform="translate(767,65)"/>
<path d="M0 0 C45.21 0 90.42 0 137 0 C138.50606515 3.01213029 138.12160331 6.11282622 138.09765625 9.4140625 C138.09553383 10.50852188 138.09553383 10.50852188 138.09336853 11.62509155 C138.08776531 13.95843585 138.07521235 16.29168464 138.0625 18.625 C138.05748541 20.20572778 138.05292243 21.78645707 138.04882812 23.3671875 C138.03779484 27.24482854 138.02052811 31.12239807 138 35 C151.13427653 34.89263091 164.26849658 34.78002472 177.40266991 34.66066074 C183.50084979 34.60540631 189.59903444 34.55198229 195.69726562 34.50268555 C201.57817497 34.45507917 207.45902456 34.40273774 213.33986282 34.34705925 C215.58781072 34.32661878 217.835775 34.30790855 220.08375168 34.29092598 C223.22304994 34.26691941 226.36223451 34.23685974 229.50146484 34.20532227 C230.43869888 34.1995668 231.37593292 34.19381134 232.34156799 34.18788147 C233.62043633 34.17319824 233.62043633 34.17319824 234.92514038 34.15821838 C235.66810553 34.15176583 236.41107067 34.14531328 237.17654991 34.1386652 C239.09899634 34.10804546 239.09899634 34.10804546 241 33 C242.57097747 36.14195495 242.13306794 39.49824005 242.12025452 42.94717407 C242.12153615 44.19317904 242.12153615 44.19317904 242.12284368 45.46435583 C242.12449822 48.2635309 242.11897753 51.0626468 242.11352539 53.86181641 C242.11324349 55.86208596 242.11340131 57.86235562 242.1139679 59.86262512 C242.11425575 65.30655695 242.108361 70.75046691 242.10139394 76.19439363 C242.09515836 81.87856722 242.09455644 87.56274125 242.09336853 93.24691772 C242.09025582 104.01685163 242.08204324 114.78677543 242.07201904 125.55670488 C242.06085604 137.8152833 242.05534698 150.07386219 242.05032361 162.33244443 C242.03986058 187.55496856 242.02226229 212.77748372 242 238 C243.10601563 238.2784375 244.21203125 238.556875 245.3515625 238.84375 C249.50704798 240.16069187 250.66718976 241.41106117 253 245 C254.18306728 247.36613456 254.13354608 248.86780736 254.125 251.5 C254.12757813 252.2940625 254.13015625 253.088125 254.1328125 253.90625 C254 256 254 256 253 258 C254.11375 258.0825 255.2275 258.165 256.375 258.25 C260 259 260 259 261.4375 261.0625 C261.623125 261.701875 261.80875 262.34125 262 263 C260.17588694 264.82411306 257.30375763 264.12550156 254.85423374 264.12584114 C254.20196685 264.12729458 253.54969995 264.12874802 252.8776674 264.13024551 C250.66480588 264.13393096 248.45201216 264.1304074 246.239151 264.12698364 C244.64754003 264.12813446 243.05592932 264.12972172 241.46431917 264.13171089 C237.06942511 264.13590967 232.6745526 264.13381105 228.27965844 264.13072467 C223.54816737 264.12847299 218.81668014 264.13194903 214.08518982 264.13470459 C204.80751783 264.13916388 195.52985391 264.13818509 186.2521816 264.13529195 C178.71503544 264.1330384 171.17789156 264.13272518 163.64074516 264.13381577 C162.57016866 264.133969 161.49959216 264.13412223 160.39657394 264.13428011 C158.22206494 264.13459982 156.04755593 264.13492403 153.87304693 264.1352527 C133.45623688 264.13810799 113.03943132 264.13481977 92.62262201 264.12945233 C75.08605891 264.12498489 57.54950243 264.12575964 40.01293945 264.13037109 C19.67336764 264.13571709 -0.66620023 264.13783262 -21.00577265 264.13475883 C-23.1728249 264.13444026 -25.33987715 264.13412589 -27.5069294 264.13381577 C-28.57329955 264.13366149 -29.6396697 264.13350721 -30.7383541 264.13334826 C-38.27006333 264.13248314 -45.80177008 264.13394591 -53.33347893 264.13629532 C-62.50700575 264.13909382 -71.68052402 264.13835401 -80.85404985 264.13301457 C-85.53875079 264.13037815 -90.22343743 264.12937151 -94.90813828 264.13266373 C-99.19070847 264.13562792 -103.47325101 264.13403178 -107.75581867 264.12868617 C-109.3109955 264.12756251 -110.86617463 264.12815206 -112.42134999 264.13056196 C-114.52373146 264.13357169 -116.62601631 264.13051543 -118.7283926 264.12584114 C-119.89966747 264.12567879 -121.07094233 264.12551644 -122.27771038 264.12534916 C-125 264 -125 264 -127 263 C-126.01 261.02 -126.01 261.02 -125 259 C-118.73 259 -112.46 259 -106 259 C-105.95906251 254.38685709 -105.94253262 249.78679599 -105.98779297 245.17553711 C-105.9958847 243.60913955 -105.98986234 242.04260104 -105.96923828 240.47631836 C-105.47961205 231.65595393 -105.47961205 231.65595393 -108.7421875 223.93896484 C-110.79048151 222.68832379 -112.7762869 221.88121121 -115 221 C-118.10357231 218.35208055 -119.04331549 215.98540767 -120 212 C-120.05916653 209.14310167 -120.01466422 206.4608127 -119.8125 203.625 C-119.76061523 202.83915527 -119.70873047 202.05331055 -119.65527344 201.24365234 C-117.43749289 171.71870762 -117.43749289 171.71870762 -108.94499302 164.17444706 C-106.54884165 161.49561775 -106.50040028 160.3012742 -106.50120544 156.75572205 C-106.49162811 155.69437546 -106.48205078 154.63302887 -106.47218323 153.53952026 C-106.48192673 152.38042145 -106.49167023 151.22132263 -106.50170898 150.02709961 C-106.49619019 148.80238449 -106.49067139 147.57766937 -106.48498535 146.31584167 C-106.47565314 143.65484081 -106.47351746 140.9949774 -106.48357964 138.33408928 C-106.49914154 134.12798229 -106.48546278 129.92228073 -106.46754456 125.71620178 C-106.43673097 117.54928325 -106.4352236 109.38248869 -106.43719482 101.21552277 C-106.43858797 90.81620554 -106.42828725 80.41698326 -106.3886171 70.01773649 C-106.37366468 65.83533345 -106.37396686 61.65328902 -106.38609493 57.47088039 C-106.39190171 54.26172945 -106.37877998 51.05264106 -106.36889648 47.84350586 C-106.37661575 46.68238281 -106.38433502 45.52125977 -106.39228821 44.32495117 C-106.3855307 43.26642441 -106.37877319 42.20789764 -106.37181091 41.11729431 C-106.37269038 39.7354843 -106.37269038 39.7354843 -106.37358761 38.32575893 C-105.93319574 35.58411199 -105.13487426 34.7061063 -103 33 C-102.42587246 33.3250395 -101.85174492 33.650079 -101.26021957 33.98496819 C-98.87919607 35.05425129 -97.42244325 35.2472084 -94.83648682 35.24050903 C-94.01481522 35.24325836 -93.19314362 35.24600769 -92.34657288 35.24884033 C-91.45393234 35.24164978 -90.56129181 35.23445923 -89.64160156 35.22705078 C-88.69492111 35.22734283 -87.74824066 35.22763489 -86.77287292 35.22793579 C-83.64536355 35.22654302 -80.51809273 35.21098416 -77.390625 35.1953125 C-75.22157929 35.19158219 -73.05253189 35.1887353 -70.88348389 35.18673706 C-65.17555079 35.17910207 -59.46771953 35.15945465 -53.75982666 35.1373291 C-47.93495054 35.11686784 -42.11005795 35.10773474 -36.28515625 35.09765625 C-24.8567261 35.0762087 -13.42837152 35.0420743 -2 35 C-1.96241577 33.5162085 -1.96241577 33.5162085 -1.92407227 32.00244141 C-1.83002213 28.33840596 -1.72979571 24.67456115 -1.62768555 21.01074219 C-1.58432759 19.42387343 -1.54265313 17.83695776 -1.50268555 16.25 C-1.44500368 13.97121021 -1.38130362 11.69265678 -1.31640625 9.4140625 C-1.29969376 8.70255035 -1.28298126 7.99103821 -1.26576233 7.25796509 C-1.11387171 2.22774341 -1.11387171 2.22774341 0 0 Z " fill="#00C6F5" transform="translate(572,186)"/>
<path d="M0 0 C16.93266831 0.10710199 33.86528837 0.21983838 50.7978735 0.33933926 C58.65942312 0.39468942 66.52097727 0.4481743 74.38256836 0.49731445 C81.23228322 0.54013439 88.08196442 0.58640675 94.93162733 0.63687855 C98.56067418 0.66349722 102.18971427 0.68835064 105.81879997 0.70907402 C109.86354423 0.7322355 113.90819354 0.76310258 117.95288086 0.79467773 C119.77088196 0.80331093 119.77088196 0.80331093 121.62561035 0.81211853 C122.72082504 0.82190735 123.81603973 0.83169617 124.94444275 0.84178162 C125.90218566 0.84823417 126.85992857 0.85468672 127.84669399 0.8613348 C130 1 130 1 131 2 C131.09644787 3.37613823 131.12371912 4.75719833 131.12304783 6.13671207 C131.12503888 7.03393579 131.12702993 7.9311595 131.12908131 8.85557181 C131.12616847 9.85263268 131.12325563 10.84969355 131.12025452 11.87696838 C131.12153615 13.45245946 131.12153615 13.45245946 131.12284368 15.05977863 C131.12450162 18.60831008 131.118972 22.15679511 131.11352539 25.70532227 C131.11324356 28.23745726 131.11340117 30.76959234 131.1139679 33.30172729 C131.11419622 38.76818504 131.11134473 44.23462761 131.10573006 49.70108223 C131.09761737 57.60474301 131.09500007 65.50839802 131.09374207 73.41206252 C131.09155118 86.23394013 131.08489011 99.05581139 131.07543945 111.87768555 C131.06626628 124.33601856 131.05918498 136.79434984 131.05493164 149.25268555 C131.05466892 150.02008069 131.05440619 150.78747583 131.05413551 151.57812537 C131.05283051 155.42776103 131.05156679 159.27739671 131.05032361 163.1270324 C131.03994986 195.08469288 131.02233056 227.04234556 131 259 C127.03069011 259.02465881 123.06140966 259.04284023 119.09204102 259.05493164 C117.74079614 259.05997057 116.38955674 259.06680177 115.03833008 259.07543945 C113.09979566 259.08752419 111.161222 259.09269828 109.22265625 259.09765625 C107.47094116 259.10551147 107.47094116 259.10551147 105.68383789 259.11352539 C103 259 103 259 102 258 C101.89426672 255.39387919 101.85321925 252.8141223 101.85473633 250.20727539 C101.85137772 249.39104202 101.8480191 248.57480865 101.84455872 247.73384094 C101.83501967 245.02176412 101.83310413 242.30974883 101.83203125 239.59765625 C101.82882074 237.7205757 101.82545683 235.84349541 101.82194519 233.96641541 C101.81594653 230.02618835 101.81410605 226.08598325 101.81469727 222.14575195 C101.81479893 217.08683367 101.80114518 212.0280556 101.78392506 206.96917057 C101.77282839 203.0908086 101.77077734 199.21248077 101.77130699 195.33410454 C101.7701234 193.46851556 101.76568057 191.60292581 101.75797462 189.73735237 C101.74822156 187.1321736 101.75103408 184.52730244 101.75708008 181.92211914 C101.75146057 181.1454187 101.74584106 180.36871826 101.74005127 179.56848145 C101.77168449 174.22831551 101.77168449 174.22831551 104 172 C107.125 171.875 107.125 171.875 110 172 C109.67 170.68 109.34 169.36 109 168 C80.95 168 52.9 168 24 168 C24 168.99 24 169.98 24 171 C25.98 171.66 27.96 172.32 30 173 C30 201.38 30 229.76 30 259 C3 259 3 259 1 258 C1.00138269 256.02373218 1.00138269 256.02373218 1.00279331 254.00753975 C1.02443315 222.75951758 1.04093148 191.51149738 1.05106533 160.26346947 C1.05231609 156.42060072 1.05361041 152.577732 1.05493164 148.73486328 C1.05519395 147.96979052 1.05545626 147.20471776 1.05572652 146.41646098 C1.0600824 134.01501191 1.0679695 121.61356747 1.0771528 109.21212114 C1.08649162 96.49495222 1.0920561 83.77778572 1.09408849 71.06061351 C1.09546324 63.20820334 1.09981126 55.35580623 1.10791647 47.50340007 C1.11380815 41.49059231 1.11445838 35.47779587 1.11310768 29.46498489 C1.11338402 26.99216125 1.11538923 24.51933713 1.11920547 22.04651642 C1.12414245 18.6840787 1.12299824 15.32169793 1.12025452 11.95925903 C1.12462378 10.47387341 1.12462378 10.47387341 1.12908131 8.95848 C1.12709026 8.06274864 1.12509921 7.16701727 1.12304783 6.24414253 C1.12342755 5.46723474 1.12380727 4.69032694 1.1241985 3.88987648 C1.11672807 1.91045803 1.11672807 1.91045803 0 0 Z " fill="#00C6F5" transform="translate(574,186)"/>
<path d="M0 0 C12.7603387 -0.02312121 25.52067245 -0.04091395 38.28102779 -0.05181217 C44.20550715 -0.05704149 50.12997222 -0.06414001 56.05444336 -0.07543945 C61.76672571 -0.08626661 67.47899428 -0.09227647 73.19128609 -0.09487724 C75.37588277 -0.0967318 77.56047865 -0.100353 79.7450695 -0.10573006 C82.79352349 -0.11293821 85.84191979 -0.11399104 88.89038086 -0.11352539 C89.80315796 -0.11712067 90.71593506 -0.12071594 91.65637207 -0.12442017 C97.88594784 -0.11405216 97.88594784 -0.11405216 99 1 C99.11020641 3.62987441 99.15496459 6.23405218 99.15821838 8.86488342 C99.16562535 10.11573208 99.16562535 10.11573208 99.17318195 11.39185041 C99.18863547 14.20792745 99.1969387 17.02398156 99.20532227 19.84008789 C99.21489463 21.85006413 99.22490432 23.86003833 99.23532104 25.87001038 C99.26244576 31.34497017 99.28341422 36.81993864 99.30332303 42.29492879 C99.32513608 48.00982209 99.35254759 53.72468839 99.37937927 59.43955994 C99.42936966 70.26971469 99.47428486 81.09988438 99.51740164 91.93006843 C99.5667199 104.25635619 99.62165803 116.58261686 99.67708123 128.90887845 C99.79099866 154.27256038 99.89781633 179.63626828 100 205 C99.34 205 98.68 205 98 205 C96.1631982 202.80126681 94.52626829 200.48799344 92.8515625 198.1640625 C89.92262716 194.74079208 87.21471956 193.82568822 82.8125 193.4375 C79 193 79 193 78 192 C77.67 184.41 77.34 176.82 77 169 C58.52 169.33 40.04 169.66 21 170 C20.67 179.24 20.34 188.48 20 198 C23.28582031 198.04898438 26.57164062 198.09796875 29.95703125 198.1484375 C33.1342429 198.20242462 36.3113782 198.25974106 39.48852539 198.31738281 C41.69907968 198.35570017 43.90969692 198.39054814 46.12036133 198.421875 C49.29531371 198.46746552 52.46983172 198.52547003 55.64453125 198.5859375 C56.63524124 198.59748871 57.62595123 198.60903992 58.64668274 198.62094116 C59.56741074 198.64081085 60.48813873 198.66068054 61.43676758 198.68115234 C62.2472908 198.69447601 63.05781403 198.70779968 63.89289856 198.7215271 C66 199 66 199 69 201 C68.0625 203 68.0625 203 66 205 C64.0078125 205.125 64.0078125 205.125 61.6875 205 C56.98737624 204.78566211 54.6088352 205.83126666 51 209 C48.6432367 212.21376814 48.68089169 215.09092321 49 219 C49.63375716 220.67945648 50.2959292 222.34878634 51 224 C43.75513449 224.02526739 36.51028026 224.0428318 29.26538086 224.05493164 C26.79857967 224.05997356 24.33178148 224.06680691 21.86499023 224.07543945 C18.32795471 224.08751125 14.79095855 224.09322956 11.25390625 224.09765625 C10.14350479 224.10281754 9.03310333 224.10797882 7.88905334 224.11329651 C6.35757912 224.11340981 6.35757912 224.11340981 4.79516602 224.11352539 C3.43948265 224.11685631 3.43948265 224.11685631 2.05641174 224.12025452 C0 224 0 224 -1 223 C-1.10014619 220.15981795 -1.1343897 217.34387873 -1.12698364 214.50318909 C-1.12854363 213.60128072 -1.13010362 212.69937236 -1.13171089 211.77013344 C-1.135725 208.7237739 -1.13252965 205.67746349 -1.12939453 202.63110352 C-1.1307484 200.45688854 -1.13252825 198.28267378 -1.13470459 196.10845947 C-1.13928091 190.1850139 -1.13748848 184.26158566 -1.1343255 178.33813977 C-1.1318026 172.15307393 -1.13413927 165.96800962 -1.13571167 159.78294373 C-1.13765059 148.72647113 -1.13453272 137.67000623 -1.12945233 126.61353486 C-1.12439337 115.25186071 -1.12699518 103.89020262 -1.1321975 92.52852875 C-1.13672936 82.22028093 -1.13737877 71.91203824 -1.13475883 61.60378975 C-1.13319628 55.4389216 -1.13300167 49.27406144 -1.13629532 43.1091938 C-1.13917504 37.31366809 -1.13719645 31.51816432 -1.13140106 25.72264099 C-1.13007395 23.59006728 -1.13046676 21.45749174 -1.13266373 19.32491875 C-1.13537716 16.42451872 -1.13199166 13.52418998 -1.12698364 10.62379456 C-1.12921436 9.77040278 -1.13144509 8.91701101 -1.13374341 8.03775889 C-1.11414992 2.22829984 -1.11414992 2.22829984 0 0 Z " fill="#00C6F5" transform="translate(711,221)"/>
<path d="M0 0 C1.98 0.99 1.98 0.99 4 2 C3.505 128.72 3.505 128.72 3 258 C12.57 258.33 22.14 258.66 32 259 C31.67 230.62 31.34 202.24 31 173 C28.03 172.01 28.03 172.01 25 171 C25 168 25 168 26 167 C28.64738089 166.90488734 31.26859001 166.87444365 33.91625977 166.88647461 C34.74545929 166.88632858 35.57465881 166.88618256 36.4289856 166.8860321 C39.18315198 166.88673149 41.93725161 166.89452507 44.69140625 166.90234375 C46.59569766 166.90420784 48.49998955 166.90563178 50.40428162 166.90663147 C55.42667963 166.91045737 60.44904892 166.92028827 65.47143555 166.93133545 C70.5922812 166.94154802 75.71313148 166.94612876 80.83398438 166.95117188 C90.88933557 166.96191047 100.9446654 166.97898776 111 167 C111.33 168.65 111.66 170.3 112 172 C108.535 172.99 108.535 172.99 105 174 C105 201.72 105 229.44 105 258 C114.24 258.33 123.48 258.66 133 259 C132.505 131.29 132.505 131.29 132 1 C133.65 0.67 135.3 0.34 137 0 C139.36591477 4.73182953 138.41900722 11.151875 138.55639648 16.38989258 C138.57740634 17.15041605 138.59841619 17.91093951 138.62006271 18.69450915 C139.21749795 40.85036513 139.12849197 63.01316985 139.10139394 85.17511725 C139.09503657 91.27550117 139.09454701 97.37588587 139.09336853 103.47627258 C139.09029101 114.96759305 139.08212719 126.45890373 139.07201904 137.95021993 C139.06074507 151.05839876 139.05531936 164.16657812 139.05032361 177.2747606 C139.03994051 204.18318038 139.021641 231.09158676 139 258 C155.5 258 172 258 189 258 C188.34 256.68 187.68 255.36 187 254 C186.49181491 250.1039143 186.8328111 248.31580125 188.6875 244.8125 C191.10260917 241.87520507 192.48139292 240.40744283 196 239 C198.3638844 238.92612861 200.65438649 238.99732866 203.01171875 239.1875 C203.66785156 239.125625 204.32398438 239.06375 205 239 C205.66 238.01 206.32 237.02 207 236 C204.69773744 234.84886872 203.32817774 234.85217631 200.765625 234.81054688 C199.45416504 234.78547058 199.45416504 234.78547058 198.11621094 234.7598877 C197.17036133 234.74631226 196.22451172 234.73273682 195.25 234.71875 C193.7964209 234.69113586 193.7964209 234.69113586 192.31347656 234.66296387 C189.20904719 234.60409969 186.10456261 234.55132698 183 234.5 C178.91654611 234.43248925 174.83327376 234.35882134 170.75 234.28125 C169.80415039 234.26767456 168.85830078 234.25409912 167.88378906 234.2401123 C166.5723291 234.21503601 166.5723291 234.21503601 165.234375 234.18945312 C164.46319336 234.17692505 163.69201172 234.16439697 162.89746094 234.15148926 C161 234 161 234 159 233 C158.91307926 228.72929442 158.85963485 224.45881542 158.8125 220.1875 C158.77479492 218.36508789 158.77479492 218.36508789 158.73632812 216.50585938 C158.72666016 215.34248047 158.71699219 214.17910156 158.70703125 212.98046875 C158.6913208 211.90692139 158.67561035 210.83337402 158.65942383 209.72729492 C159 207 159 207 160.19018555 205.35083008 C162.65148374 203.51373809 164.24281669 203.63806166 167.29760742 203.65942383 C168.37850143 203.65965042 169.45939545 203.65987701 170.57304382 203.66011047 C171.73874405 203.67559433 172.90444427 203.69107819 174.10546875 203.70703125 C175.29981033 203.71127609 176.49415192 203.71552094 177.72468567 203.71989441 C181.54585144 203.73671041 185.36649316 203.77436907 189.1875 203.8125 C191.77538302 203.82754301 194.36327429 203.84123208 196.95117188 203.85351562 C203.30096058 203.88662355 209.65044286 203.93685238 216 204 C217.20270964 206.40541929 217.20316663 208.10366591 217.31640625 210.7890625 C217.35830078 211.73007812 217.40019531 212.67109375 217.44335938 213.640625 C217.50233398 215.11789062 217.50233398 215.11789062 217.5625 216.625 C217.60568359 217.61757813 217.64886719 218.61015625 217.69335938 219.6328125 C217.79961069 222.08839838 217.90164964 224.54408703 218 227 C219.02299194 227.17523193 219.02299194 227.17523193 220.06665039 227.35400391 C220.96375732 227.51819824 221.86086426 227.68239258 222.78515625 227.8515625 C223.67340088 228.00963379 224.56164551 228.16770508 225.47680664 228.33056641 C230.6447449 229.70168268 234.21507312 233.51317336 237 238 C237 238.66 237 239.32 237 240 C237.66 240 238.32 240 239 240 C238.67 239.34 238.34 238.68 238 238 C237.89214474 235.34267078 237.84509757 232.71084886 237.84178162 230.05282593 C237.83684364 229.22215595 237.83190566 228.39148597 237.82681805 227.53564417 C237.81139091 224.73649274 237.80306835 221.93736433 237.79467773 219.13818359 C237.78510331 217.13791194 237.77509349 215.13764233 237.76467896 213.13737488 C237.73757665 207.69346508 237.71659598 202.24954656 237.69667697 196.80560637 C237.67485019 191.1214154 237.64744536 185.43725146 237.62062073 179.75308228 C237.570649 168.98316799 237.52572683 158.21323874 237.48259836 147.44329512 C237.43326422 135.1846975 237.37833194 122.92612699 237.32291877 110.66755557 C237.20902997 85.44506233 237.102206 60.22254309 237 35 C238.98 34.01 238.98 34.01 241 33 C242.57097747 36.14195495 242.13306794 39.49824005 242.12025452 42.94717407 C242.12153615 44.19317904 242.12153615 44.19317904 242.12284368 45.46435583 C242.12449822 48.2635309 242.11897753 51.0626468 242.11352539 53.86181641 C242.11324349 55.86208596 242.11340131 57.86235562 242.1139679 59.86262512 C242.11425575 65.30655695 242.108361 70.75046691 242.10139394 76.19439363 C242.09515836 81.87856722 242.09455644 87.56274125 242.09336853 93.24691772 C242.09025582 104.01685163 242.08204324 114.78677543 242.07201904 125.55670488 C242.06085604 137.8152833 242.05534698 150.07386219 242.05032361 162.33244443 C242.03986058 187.55496856 242.02226229 212.77748372 242 238 C243.10601563 238.2784375 244.21203125 238.556875 245.3515625 238.84375 C249.50704798 240.16069187 250.66718976 241.41106117 253 245 C254.18306728 247.36613456 254.13354608 248.86780736 254.125 251.5 C254.12757813 252.2940625 254.13015625 253.088125 254.1328125 253.90625 C254 256 254 256 253 258 C254.11375 258.0825 255.2275 258.165 256.375 258.25 C260 259 260 259 261.4375 261.0625 C261.623125 261.701875 261.80875 262.34125 262 263 C260.17588694 264.82411306 257.30375763 264.12550156 254.85423374 264.12584114 C254.20196685 264.12729458 253.54969995 264.12874802 252.8776674 264.13024551 C250.66480588 264.13393096 248.45201216 264.1304074 246.239151 264.12698364 C244.64754003 264.12813446 243.05592932 264.12972172 241.46431917 264.13171089 C237.06942511 264.13590967 232.6745526 264.13381105 228.27965844 264.13072467 C223.54816737 264.12847299 218.81668014 264.13194903 214.08518982 264.13470459 C204.80751783 264.13916388 195.52985391 264.13818509 186.2521816 264.13529195 C178.71503544 264.1330384 171.17789156 264.13272518 163.64074516 264.13381577 C162.57016866 264.133969 161.49959216 264.13412223 160.39657394 264.13428011 C158.22206494 264.13459982 156.04755593 264.13492403 153.87304693 264.1352527 C133.45623688 264.13810799 113.03943132 264.13481977 92.62262201 264.12945233 C75.08605891 264.12498489 57.54950243 264.12575964 40.01293945 264.13037109 C19.67336764 264.13571709 -0.66620023 264.13783262 -21.00577265 264.13475883 C-23.1728249 264.13444026 -25.33987715 264.13412589 -27.5069294 264.13381577 C-28.57329955 264.13366149 -29.6396697 264.13350721 -30.7383541 264.13334826 C-38.27006333 264.13248314 -45.80177008 264.13394591 -53.33347893 264.13629532 C-62.50700575 264.13909382 -71.68052402 264.13835401 -80.85404985 264.13301457 C-85.53875079 264.13037815 -90.22343743 264.12937151 -94.90813828 264.13266373 C-99.19070847 264.13562792 -103.47325101 264.13403178 -107.75581867 264.12868617 C-109.3109955 264.12756251 -110.86617463 264.12815206 -112.42134999 264.13056196 C-114.52373146 264.13357169 -116.62601631 264.13051543 -118.7283926 264.12584114 C-119.89966747 264.12567879 -121.07094233 264.12551644 -122.27771038 264.12534916 C-125 264 -125 264 -127 263 C-126.01 261.02 -126.01 261.02 -125 259 C-118.73 259 -112.46 259 -106 259 C-105.95906251 254.38685709 -105.94253262 249.78679599 -105.98779297 245.17553711 C-105.9958847 243.60913955 -105.98986234 242.04260104 -105.96923828 240.47631836 C-105.47961205 231.65595393 -105.47961205 231.65595393 -108.7421875 223.93896484 C-110.79048151 222.68832379 -112.7762869 221.88121121 -115 221 C-118.10357231 218.35208055 -119.04331549 215.98540767 -120 212 C-120.05916653 209.14310167 -120.01466422 206.4608127 -119.8125 203.625 C-119.76061523 202.83915527 -119.70873047 202.05331055 -119.65527344 201.24365234 C-117.43749289 171.71870762 -117.43749289 171.71870762 -108.94499302 164.17444706 C-106.54884165 161.49561775 -106.50040028 160.3012742 -106.50120544 156.75572205 C-106.49162811 155.69437546 -106.48205078 154.63302887 -106.47218323 153.53952026 C-106.48192673 152.38042145 -106.49167023 151.22132263 -106.50170898 150.02709961 C-106.49619019 148.80238449 -106.49067139 147.57766937 -106.48498535 146.31584167 C-106.47565314 143.65484081 -106.47351746 140.9949774 -106.48357964 138.33408928 C-106.49914154 134.12798229 -106.48546278 129.92228073 -106.46754456 125.71620178 C-106.43673097 117.54928325 -106.4352236 109.38248869 -106.43719482 101.21552277 C-106.43858797 90.81620554 -106.42828725 80.41698326 -106.3886171 70.01773649 C-106.37366468 65.83533345 -106.37396686 61.65328902 -106.38609493 57.47088039 C-106.39190171 54.26172945 -106.37877998 51.05264106 -106.36889648 47.84350586 C-106.37661575 46.68238281 -106.38433502 45.52125977 -106.39228821 44.32495117 C-106.3855307 43.26642441 -106.37877319 42.20789764 -106.37181091 41.11729431 C-106.37269038 39.7354843 -106.37269038 39.7354843 -106.37358761 38.32575893 C-105.93319574 35.58411199 -105.13487426 34.7061063 -103 33 C-101 35 -101 35 -100.75504684 37.19433117 C-100.757309 38.11256318 -100.75957115 39.03079519 -100.76190186 39.97685242 C-100.75940933 41.02966904 -100.75691681 42.08248566 -100.75434875 43.16720581 C-100.76161484 44.327211 -100.76888092 45.48721619 -100.77636719 46.68237305 C-100.77575539 48.50936989 -100.77575539 48.50936989 -100.77513123 50.37327576 C-100.77493321 53.02634011 -100.77821899 55.67916189 -100.78673553 58.33218956 C-100.7991044 62.53074793 -100.79217454 66.72913405 -100.78131104 70.9276886 C-100.75283006 82.86809839 -100.74037301 94.80836202 -100.77001953 106.7487793 C-100.78622466 113.34084706 -100.78103267 119.93254003 -100.75222325 126.52456886 C-100.73794671 130.01209503 -100.73486914 133.49884151 -100.75844574 136.98633385 C-100.78477153 140.88142061 -100.76476133 144.77553412 -100.74121094 148.6706543 C-100.75657394 149.82053833 -100.77193695 150.97042236 -100.7877655 152.15515137 C-100.71969492 157.42864328 -100.60516675 160.96857021 -97.05426025 165.04426575 C-96.25698706 165.78890186 -96.25698706 165.78890186 -95.44360733 166.54858112 C-86.26606767 175.77578164 -86.78939212 199.30682615 -86.734375 211.01171875 C-87.08635766 214.97152367 -87.87419714 217.77159934 -90.5859375 220.73046875 C-91.17632812 221.21128906 -91.76671875 221.69210937 -92.375 222.1875 C-93.25285156 222.92033203 -93.25285156 222.92033203 -94.1484375 223.66796875 C-96 225 -96 225 -100 227 C-100 237.23 -100 247.46 -100 258 C-67.33 258.33 -34.66 258.66 -1 259 C-1.00523682 251.22518066 -1.01047363 243.45036133 -1.01586914 235.43994141 C-1.03190602 210.58705789 -1.04303683 185.73417451 -1.05106533 160.88128719 C-1.05231609 157.02339718 -1.05361041 153.16550718 -1.05493164 149.30761719 C-1.05519395 148.53955381 -1.05545626 147.77149044 -1.05572652 146.98015241 C-1.0600824 134.53020441 -1.06796951 122.08026101 -1.0771528 109.63031574 C-1.0864916 96.86342627 -1.09205609 84.09653921 -1.09408849 71.32964647 C-1.09546325 63.44652686 -1.09981129 55.56342024 -1.10791647 47.68030463 C-1.11380812 41.64399585 -1.11445838 35.60769833 -1.11310768 29.57138634 C-1.11338402 27.08888735 -1.11538925 24.6063879 -1.11920547 22.12389183 C-1.1241424 18.748317 -1.12299826 15.3727989 -1.12025452 11.9972229 C-1.12316736 11.00307487 -1.1260802 10.00892684 -1.12908131 8.98465312 C-1.12709026 8.08543836 -1.12509921 7.1862236 -1.12304783 6.2597599 C-1.12342755 5.47981434 -1.12380727 4.69986879 -1.1241985 3.89628851 C-1 2 -1 2 0 0 Z " fill="#090D0F" transform="translate(572,186)"/>
<path d="M0 0 C1.07241943 0.00410889 2.14483887 0.00821777 3.24975586 0.01245117 C4.4118457 0.01438477 5.57393555 0.01631836 6.77124023 0.01831055 C7.99004883 0.03055664 9.20885742 0.04280273 10.46459961 0.05541992 C12.29861328 0.05638672 12.29861328 0.05638672 14.16967773 0.05737305 C23.26198905 0.10280936 23.26198905 0.10280936 24.40209961 1.24291992 C24.49075169 4.12725812 24.51731257 6.9875415 24.49975586 9.87182617 C24.49834091 10.73605698 24.49692596 11.60028778 24.49546814 12.4907074 C24.489852 15.26231284 24.4772968 18.03383872 24.46459961 20.80541992 C24.45958669 22.67976772 24.45502342 24.55411677 24.45092773 26.4284668 C24.43987733 31.03331536 24.42260191 35.63810413 24.40209961 40.24291992 C22.09209961 40.90291992 19.78209961 41.56291992 17.40209961 42.24291992 C17.40209961 42.90291992 17.40209961 43.56291992 17.40209961 44.24291992 C19.71209961 44.90291992 22.02209961 45.56291992 24.40209961 46.24291992 C24.41668213 46.8080127 24.43126465 47.37310547 24.44628906 47.95532227 C24.52066019 50.51022011 24.61735203 53.0637949 24.71459961 55.61791992 C24.7371582 56.50737305 24.7597168 57.39682617 24.78295898 58.31323242 C24.83613281 59.5894043 24.83613281 59.5894043 24.89038086 60.89135742 C24.91656494 61.67687988 24.94274902 62.46240234 24.96972656 63.27172852 C25.25099558 65.64332148 25.25099558 65.64332148 28.40209961 67.24291992 C28.38638916 66.68306396 28.37067871 66.12320801 28.35449219 65.54638672 C28.29210113 63.00783402 28.25309743 60.46944263 28.21459961 57.93041992 C28.18946289 57.0493457 28.16432617 56.16827148 28.13842773 55.26049805 C28.12875977 54.41293945 28.1190918 53.56538086 28.10913086 52.69213867 C28.09342041 51.91185303 28.07770996 51.13156738 28.06152344 50.32763672 C28.49344934 47.68375479 29.26077434 46.81446918 31.40209961 45.24291992 C34.58959961 45.05541992 34.58959961 45.05541992 37.40209961 45.24291992 C36.89953849 43.22859727 36.89953849 43.22859727 35.40209961 41.24291992 C33.08788523 40.51264553 30.75395136 39.84098532 28.40209961 39.24291992 C28.35274136 34.01018661 28.31640012 28.77758816 28.29223633 23.54467773 C28.2821653 21.76372925 28.26850776 19.98279735 28.2512207 18.2019043 C28.22702048 15.64522209 28.21562777 13.08875807 28.20678711 10.53198242 C28.19646454 9.73297516 28.18614197 8.9339679 28.17550659 8.11074829 C28.17510735 6.15334773 28.27968892 4.19648916 28.40209961 2.24291992 C30.40209961 0.24291992 30.40209961 0.24291992 33 0 C34.07241943 0.00410889 35.14483887 0.00821777 36.24975586 0.01245117 C37.4118457 0.01438477 38.57393555 0.01631836 39.77124023 0.01831055 C40.99004883 0.03055664 42.20885742 0.04280273 43.46459961 0.05541992 C45.29861328 0.05638672 45.29861328 0.05638672 47.16967773 0.05737305 C56.26198905 0.10280936 56.26198905 0.10280936 57.40209961 1.24291992 C57.49722905 3.92079966 57.5276524 6.57280861 57.515625 9.25097656 C57.51577103 10.08992966 57.51591705 10.92888275 57.5160675 11.79325867 C57.5153681 14.57989036 57.50757446 17.36645608 57.49975586 20.15307617 C57.49789178 22.07978784 57.49646783 24.00649997 57.49546814 25.93321228 C57.4916422 31.01479389 57.48181127 36.09634712 57.47076416 41.17791748 C57.46055167 46.35908626 57.45597087 51.54025961 57.45092773 56.72143555 C57.44018907 66.89527617 57.42311174 77.06909569 57.40209961 87.24291992 C49.46596174 87.26604756 41.52983785 87.28383716 33.59367466 87.29473209 C29.90895463 87.29996 26.22425758 87.30705597 22.53955078 87.31835938 C18.9863913 87.32919154 15.43325398 87.33519745 11.88007927 87.33779716 C10.52164295 87.33965082 9.16320789 87.3432703 7.80478096 87.34864998 C5.90827737 87.35586467 4.01175168 87.35632801 2.11523438 87.35644531 C0.49307762 87.35977623 0.49307762 87.35977623 -1.16184998 87.36317444 C-3.59790039 87.24291992 -3.59790039 87.24291992 -4.59790039 86.24291992 C-4.70363367 83.63679911 -4.74468114 81.05704222 -4.74316406 78.45019531 C-4.74652267 77.63396194 -4.74988129 76.81772858 -4.75334167 75.97676086 C-4.76288072 73.26468404 -4.76479626 70.55266875 -4.76586914 67.84057617 C-4.76907965 65.96349563 -4.77244356 64.08641533 -4.7759552 62.20933533 C-4.78195386 58.26910827 -4.78379435 54.32890318 -4.78320312 50.38867188 C-4.78310146 45.32975359 -4.79675521 40.27097552 -4.81397533 35.21209049 C-4.825072 31.33372852 -4.82712305 27.45540069 -4.8265934 23.57702446 C-4.82777699 21.71143549 -4.83221982 19.84584573 -4.83992577 17.98027229 C-4.84967883 15.37509352 -4.84686631 12.77022236 -4.84082031 10.16503906 C-4.84643982 9.38833862 -4.85205933 8.61163818 -4.85784912 7.81140137 C-4.81424379 0.45016188 -4.81424379 0.45016188 0 0 Z " fill="#FAFDFF" transform="translate(613.597900390625,357.757080078125)"/>
<path d="M0 0 C0.80972763 0.00142502 1.61945526 0.00285004 2.45372009 0.00431824 C3.83008385 -0.00029671 3.83008385 -0.00029671 5.23425293 -0.00500488 C6.22698715 0.00218063 7.21972137 0.00936615 8.24253845 0.01676941 C9.7662632 0.01745674 9.7662632 0.01745674 11.32077026 0.01815796 C13.47024197 0.0211822 15.61971145 0.0290736 17.76914978 0.04142761 C21.07220662 0.05968192 24.37498332 0.06193736 27.67808533 0.06169128 C29.76207214 0.06660637 31.84605705 0.07243465 33.93003845 0.07926941 C35.42217613 0.08093864 35.42217613 0.08093864 36.94445801 0.0826416 C37.85888168 0.08902145 38.77330536 0.09540131 39.71543884 0.10197449 C40.9288369 0.10769218 40.9288369 0.10769218 42.16674805 0.11352539 C44.0198822 0.24723816 44.0198822 0.24723816 45.0198822 1.24723816 C45.10657652 2.73595676 45.12691714 4.22868316 45.11753845 5.71989441 C45.1143158 6.6190155 45.11109314 7.5181366 45.10777283 8.44450378 C45.09520447 9.8627948 45.09520447 9.8627948 45.0823822 11.30973816 C45.07787048 12.25913269 45.07335876 13.20852722 45.06871033 14.18669128 C45.0568833 16.54026881 45.04040246 18.89372293 45.0198822 21.24723816 C38.20226326 21.27250706 31.38465631 21.2900706 24.56700134 21.3021698 C22.24570769 21.30721149 19.92441723 21.31404467 17.60313416 21.32267761 C14.27459426 21.3347504 10.94609618 21.34046795 7.61753845 21.34489441 C6.05036827 21.35263634 6.05036827 21.35263634 4.45153809 21.36053467 C3.49061752 21.3606102 2.52969696 21.36068573 1.53965759 21.36076355 C0.68916336 21.36298416 -0.16133087 21.36520477 -1.03759766 21.36749268 C-2.9801178 21.24723816 -2.9801178 21.24723816 -3.9801178 20.24723816 C-4.10679544 17.25705655 -4.16532618 14.30029708 -4.1676178 11.30973816 C-4.17986389 10.47249207 -4.19210999 9.63524597 -4.20472717 8.77262878 C-4.20666077 7.97147644 -4.20859436 7.1703241 -4.21058655 6.34489441 C-4.21469543 5.60763123 -4.21880432 4.87036804 -4.22303772 4.11076355 C-3.85917372 1.319433 -2.76561061 0.34531505 0 0 Z " fill="#FAFDFF" transform="translate(499.98011779785156,299.7527618408203)"/>
<path d="M0 0 C1.21911575 0.00666183 1.21911575 0.00666183 2.46286011 0.01345825 C3.38366364 0.01360931 4.30446716 0.01376038 5.25317383 0.01391602 C6.2490451 0.02423859 7.24491638 0.03456116 8.27096558 0.04519653 C9.28915375 0.04802643 10.30734192 0.05085632 11.35638428 0.05377197 C14.61709208 0.06499133 17.87752791 0.09009907 21.13815308 0.11550903 C23.34518037 0.12553656 25.55221195 0.13466281 27.75924683 0.14285278 C33.1773088 0.16493636 38.59521151 0.19843108 44.01315308 0.24050903 C45.18741572 2.58903431 45.12823481 3.97824969 45.11080933 6.59207153 C45.10758667 7.44285278 45.10436401 8.29363403 45.1010437 9.17019653 C45.08847534 10.50437622 45.08847534 10.50437622 45.07565308 11.86550903 C45.07114136 12.76269653 45.06662964 13.65988403 45.0619812 14.58425903 C45.05017899 16.80307552 45.03371463 19.02175922 45.01315308 21.24050903 C38.19553414 21.26577794 31.37792718 21.28334148 24.56027222 21.29544067 C22.23897856 21.30048237 19.9176881 21.30731555 17.59640503 21.31594849 C14.26786513 21.32802128 10.93936705 21.33373882 7.61080933 21.33816528 C6.04363914 21.34590721 6.04363914 21.34590721 4.44480896 21.35380554 C3.4838884 21.35388107 2.52296783 21.3539566 1.53292847 21.35403442 C0.68243423 21.35625504 -0.16806 21.35847565 -1.04432678 21.36076355 C-2.98684692 21.24050903 -2.98684692 21.24050903 -3.98684692 20.24050903 C-4.11352457 17.25032742 -4.17205531 14.29356795 -4.17434692 11.30300903 C-4.18659302 10.46576294 -4.19883911 9.62851685 -4.2114563 8.76589966 C-4.21338989 7.96474731 -4.21532349 7.16359497 -4.21731567 6.33816528 C-4.22142456 5.6009021 -4.22553345 4.86363892 -4.22976685 4.10403442 C-3.86527464 1.30788466 -2.7713751 0.33547665 0 0 Z " fill="#FAFDFF" transform="translate(499.9868469238281,252.75949096679688)"/>
<path d="M0 0 C1.34621933 -0.00450165 1.34621933 -0.00450165 2.71963501 -0.00909424 C3.68533417 0.00325256 4.65103333 0.01559937 5.64599609 0.02832031 C6.6382016 0.03019348 7.6304071 0.03206665 8.65267944 0.03399658 C10.74911867 0.04071878 12.84554533 0.05463657 14.94189453 0.07519531 C18.16369174 0.10638972 21.38500026 0.11616934 24.60693359 0.12207031 C26.64079377 0.13123843 28.67464894 0.14161359 30.70849609 0.15332031 C32.16311752 0.15969513 32.16311752 0.15969513 33.64712524 0.16619873 C34.53830048 0.17580627 35.42947571 0.18541382 36.34765625 0.1953125 C37.13580719 0.2021405 37.92395813 0.20896851 38.73599243 0.21600342 C40.54443359 0.35644531 40.54443359 0.35644531 41.54443359 1.35644531 C41.63112791 2.84516391 41.65146853 4.33789031 41.64208984 5.82910156 C41.63886719 6.72822266 41.63564453 7.62734375 41.63232422 8.55371094 C41.61975586 9.97200195 41.61975586 9.97200195 41.60693359 11.41894531 C41.60242188 12.36833984 41.59791016 13.31773437 41.59326172 14.29589844 C41.5814347 16.64947596 41.56495385 19.00293009 41.54443359 21.35644531 C34.72681465 21.38171422 27.9092077 21.39927776 21.09155273 21.41137695 C18.77025908 21.41641865 16.44896862 21.42325183 14.12768555 21.43188477 C10.79914565 21.44395756 7.47064757 21.4496751 4.14208984 21.45410156 C2.57491966 21.46184349 2.57491966 21.46184349 0.97608948 21.46974182 C0.01516891 21.46981735 -0.94575165 21.46989288 -1.93579102 21.4699707 C-2.78628525 21.47219131 -3.63677948 21.47441193 -4.51304626 21.47669983 C-6.45556641 21.35644531 -6.45556641 21.35644531 -7.45556641 20.35644531 C-7.60910979 17.55132578 -7.68722416 14.7878086 -7.70556641 11.98144531 C-7.72619141 11.20027344 -7.74681641 10.41910156 -7.76806641 9.61425781 C-7.80757713 3.8456917 -7.80757713 3.8456917 -6.21353149 1.63018799 C-3.98627432 0.01641731 -2.73544623 -0.01262744 0 0 Z " fill="#FAFDFF" transform="translate(742.45556640625,252.6435546875)"/>
<path d="M0 0 C1.31134666 -0.00934319 1.31134666 -0.00934319 2.64918518 -0.01887512 C3.5898735 -0.00966537 4.53056183 -0.00045563 5.49975586 0.0090332 C6.95121254 0.00828545 6.95121254 0.00828545 8.43199158 0.00752258 C10.47714289 0.00986301 12.52229707 0.01958967 14.56738281 0.03613281 C17.70590827 0.05974905 20.84358589 0.05669057 23.98217773 0.05004883 C25.96720886 0.05562467 27.9522364 0.06273396 29.93725586 0.0715332 C30.87996841 0.0706218 31.82268097 0.06971039 32.79396057 0.06877136 C33.66503952 0.07830338 34.53611847 0.08783539 35.43359375 0.09765625 C36.5858419 0.10456734 36.5858419 0.10456734 37.7613678 0.11161804 C39.65209961 0.37231445 39.65209961 0.37231445 41.65209961 2.37231445 C41.87915039 4.34350586 41.87915039 4.34350586 41.84741211 6.72387695 C41.8409668 7.5746582 41.83452148 8.42543945 41.82788086 9.30200195 C41.81112305 10.19145508 41.79436523 11.0809082 41.77709961 11.99731445 C41.76807617 12.89450195 41.75905273 13.79168945 41.74975586 14.71606445 C41.72614931 16.93508031 41.69322271 19.15356523 41.65209961 21.37231445 C34.99520679 21.39761035 28.33832631 21.41515841 21.68139648 21.42724609 C19.41544125 21.43228372 17.14948928 21.43911397 14.88354492 21.44775391 C11.63190914 21.45984442 8.38031622 21.46554838 5.12866211 21.4699707 C3.60204453 21.47771263 3.60204453 21.47771263 2.04458618 21.48561096 C0.63334976 21.48572426 0.63334976 21.48572426 -0.80639648 21.48583984 C-2.05215958 21.48917076 -2.05215958 21.48917076 -3.3230896 21.49256897 C-5.34790039 21.37231445 -5.34790039 21.37231445 -7.34790039 20.37231445 C-7.42879581 17.60089728 -7.48834101 14.83183626 -7.53540039 12.05981445 C-7.57310547 10.88128906 -7.57310547 10.88128906 -7.61157227 9.67895508 C-7.62124023 8.92163086 -7.6309082 8.16430664 -7.64086914 7.3840332 C-7.65657959 6.68753662 -7.67229004 5.99104004 -7.68847656 5.2734375 C-6.91489314 0.95523383 -4.00868378 -0.00328127 0 0 Z " fill="#FAFDFF" transform="translate(742.347900390625,299.627685546875)"/>
<path d="M0 0 C6.6752034 -0.02526945 13.35039457 -0.04283268 20.02563477 -0.05493164 C22.29842591 -0.05997325 24.5712138 -0.06680637 26.84399414 -0.07543945 C30.10303551 -0.08751261 33.36203417 -0.09322987 36.62109375 -0.09765625 C37.64400009 -0.10281754 38.66690643 -0.10797882 39.72080994 -0.11329651 C40.66170975 -0.11337204 41.60260956 -0.11344757 42.57202148 -0.11352539 C43.40475082 -0.115746 44.23748016 -0.11796661 45.09544373 -0.12025452 C47 0 47 0 48 1 C48.08651611 2.41570123 48.10704904 3.835595 48.09765625 5.25390625 C48.09443359 6.10791016 48.09121094 6.96191406 48.08789062 7.84179688 C48.07532227 9.18854492 48.07532227 9.18854492 48.0625 10.5625 C48.05798828 11.46419922 48.05347656 12.36589844 48.04882812 13.29492188 C48.03700225 15.53001314 48.0205222 17.76497437 48 20 C41.18238106 20.0252689 34.36477411 20.04283244 27.54711914 20.05493164 C25.22582549 20.05997333 22.90453503 20.06680651 20.58325195 20.07543945 C17.25471205 20.08751225 13.92621398 20.09322979 10.59765625 20.09765625 C9.03048607 20.10539818 9.03048607 20.10539818 7.43165588 20.11329651 C6.47073532 20.11337204 5.50981476 20.11344757 4.51977539 20.11352539 C3.66928116 20.115746 2.81878693 20.11796661 1.94252014 20.12025452 C0 20 0 20 -1 19 C-1.10007008 16.17743509 -1.13875598 13.3847681 -1.125 10.5625 C-1.12886719 9.77294922 -1.13273438 8.98339844 -1.13671875 8.16992188 C-1.12663067 2.25326133 -1.12663067 2.25326133 0 0 Z " fill="#FAFDFF" transform="translate(736,348)"/>
<path d="M0 0 C6.6752034 -0.02526945 13.35039457 -0.04283268 20.02563477 -0.05493164 C22.29842591 -0.05997325 24.5712138 -0.06680637 26.84399414 -0.07543945 C30.10303551 -0.08751261 33.36203417 -0.09322987 36.62109375 -0.09765625 C37.64400009 -0.10281754 38.66690643 -0.10797882 39.72080994 -0.11329651 C40.66170975 -0.11337204 41.60260956 -0.11344757 42.57202148 -0.11352539 C43.40475082 -0.115746 44.23748016 -0.11796661 45.09544373 -0.12025452 C47 0 47 0 48 1 C48.08651611 2.41570123 48.10704904 3.835595 48.09765625 5.25390625 C48.09443359 6.10791016 48.09121094 6.96191406 48.08789062 7.84179688 C48.07532227 9.18854492 48.07532227 9.18854492 48.0625 10.5625 C48.05798828 11.46419922 48.05347656 12.36589844 48.04882812 13.29492188 C48.03700225 15.53001314 48.0205222 17.76497437 48 20 C41.18238106 20.0252689 34.36477411 20.04283244 27.54711914 20.05493164 C25.22582549 20.05997333 22.90453503 20.06680651 20.58325195 20.07543945 C17.25471205 20.08751225 13.92621398 20.09322979 10.59765625 20.09765625 C9.03048607 20.10539818 9.03048607 20.10539818 7.43165588 20.11329651 C6.47073532 20.11337204 5.50981476 20.11344757 4.51977539 20.11352539 C3.66928116 20.115746 2.81878693 20.11796661 1.94252014 20.12025452 C0 20 0 20 -1 19 C-1.10007008 16.17743509 -1.13875598 13.3847681 -1.125 10.5625 C-1.12886719 9.77294922 -1.13273437 8.98339844 -1.13671875 8.16992188 C-1.12663067 2.25326133 -1.12663067 2.25326133 0 0 Z " fill="#FAFDFF" transform="translate(497,348)"/>
<path d="M0 0 C0.80972763 0.00142502 1.61945526 0.00285004 2.45372009 0.00431824 C3.83008385 -0.00029671 3.83008385 -0.00029671 5.23425293 -0.00500488 C6.22698715 0.00218063 7.21972137 0.00936615 8.24253845 0.01676941 C9.7662632 0.01745674 9.7662632 0.01745674 11.32077026 0.01815796 C13.47024197 0.0211822 15.61971145 0.0290736 17.76914978 0.04142761 C21.07220662 0.05968192 24.37498332 0.06193736 27.67808533 0.06169128 C29.76207214 0.06660637 31.84605705 0.07243465 33.93003845 0.07926941 C35.42217613 0.08093864 35.42217613 0.08093864 36.94445801 0.0826416 C37.85888168 0.08902145 38.77330536 0.09540131 39.71543884 0.10197449 C40.9288369 0.10769218 40.9288369 0.10769218 42.16674805 0.11352539 C44.0198822 0.24723816 44.0198822 0.24723816 45.0198822 1.24723816 C45.10639831 2.66293939 45.12693124 4.08283316 45.11753845 5.50114441 C45.1143158 6.35514832 45.11109314 7.20915222 45.10777283 8.08903503 C45.09520447 9.43578308 45.09520447 9.43578308 45.0823822 10.80973816 C45.07787048 11.71143738 45.07335876 12.6131366 45.06871033 13.54216003 C45.05688445 15.7772513 45.0404044 18.01221253 45.0198822 20.24723816 C38.20226326 20.27250706 31.38465631 20.2900706 24.56700134 20.3021698 C22.24570769 20.30721149 19.92441723 20.31404467 17.60313416 20.32267761 C14.27459426 20.3347504 10.94609618 20.34046795 7.61753845 20.34489441 C6.05036827 20.35263634 6.05036827 20.35263634 4.45153809 20.36053467 C3.49061752 20.3606102 2.52969696 20.36068573 1.53965759 20.36076355 C0.68916336 20.36298416 -0.16133087 20.36520477 -1.03759766 20.36749268 C-2.9801178 20.24723816 -2.9801178 20.24723816 -3.9801178 19.24723816 C-4.10674871 16.42307434 -4.16532328 13.63429023 -4.1676178 10.80973816 C-4.17986389 10.02018738 -4.19210999 9.2306366 -4.20472717 8.41716003 C-4.20999059 6.35916381 -4.10218065 4.30161807 -3.9801178 2.24723816 C-1.9801178 0.24723816 -1.9801178 0.24723816 0 0 Z " fill="#FAFDFF" transform="translate(738.9801177978516,394.7527618408203)"/>
<path d="M0 0 C0.80972763 0.00142502 1.61945526 0.00285004 2.45372009 0.00431824 C3.83008385 -0.00029671 3.83008385 -0.00029671 5.23425293 -0.00500488 C6.22698715 0.00218063 7.21972137 0.00936615 8.24253845 0.01676941 C9.7662632 0.01745674 9.7662632 0.01745674 11.32077026 0.01815796 C13.47024197 0.0211822 15.61971145 0.0290736 17.76914978 0.04142761 C21.07220662 0.05968192 24.37498332 0.06193736 27.67808533 0.06169128 C29.76207214 0.06660637 31.84605705 0.07243465 33.93003845 0.07926941 C35.42217613 0.08093864 35.42217613 0.08093864 36.94445801 0.0826416 C37.85888168 0.08902145 38.77330536 0.09540131 39.71543884 0.10197449 C40.9288369 0.10769218 40.9288369 0.10769218 42.16674805 0.11352539 C44.0198822 0.24723816 44.0198822 0.24723816 45.0198822 1.24723816 C45.10639831 2.66293939 45.12693124 4.08283316 45.11753845 5.50114441 C45.1143158 6.35514832 45.11109314 7.20915222 45.10777283 8.08903503 C45.09520447 9.43578308 45.09520447 9.43578308 45.0823822 10.80973816 C45.07787048 11.71143738 45.07335876 12.6131366 45.06871033 13.54216003 C45.05688445 15.7772513 45.0404044 18.01221253 45.0198822 20.24723816 C38.20226326 20.27250706 31.38465631 20.2900706 24.56700134 20.3021698 C22.24570769 20.30721149 19.92441723 20.31404467 17.60313416 20.32267761 C14.27459426 20.3347504 10.94609618 20.34046795 7.61753845 20.34489441 C6.05036827 20.35263634 6.05036827 20.35263634 4.45153809 20.36053467 C3.49061752 20.3606102 2.52969696 20.36068573 1.53965759 20.36076355 C0.68916336 20.36298416 -0.16133087 20.36520477 -1.03759766 20.36749268 C-2.9801178 20.24723816 -2.9801178 20.24723816 -3.9801178 19.24723816 C-4.10674871 16.42307434 -4.16532328 13.63429023 -4.1676178 10.80973816 C-4.17986389 10.02018738 -4.19210999 9.2306366 -4.20472717 8.41716003 C-4.20999059 6.35916381 -4.10218065 4.30161807 -3.9801178 2.24723816 C-1.9801178 0.24723816 -1.9801178 0.24723816 0 0 Z " fill="#FAFDFF" transform="translate(499.98011779785156,394.7527618408203)"/>
<path d="M0 0 C1.10923828 -0.00386719 2.21847656 -0.00773438 3.36132812 -0.01171875 C4.51955078 -0.00011719 5.67777344 0.01148438 6.87109375 0.0234375 C8.03318359 0.01183594 9.19527344 0.00023437 10.39257812 -0.01171875 C11.50052734 -0.00785156 12.60847656 -0.00398437 13.75 0 C15.27669312 0.00507568 15.27669312 0.00507568 16.83422852 0.01025391 C17.65076904 0.13835449 18.46730957 0.26645508 19.30859375 0.3984375 C21.66868192 3.93856975 21.54323019 5.40965705 21.50390625 9.59765625 C21.49746094 10.80615234 21.49101563 12.01464844 21.484375 13.25976562 C21.46761719 14.52240234 21.45085938 15.78503906 21.43359375 17.0859375 C21.42457031 18.36017578 21.41554688 19.63441406 21.40625 20.94726562 C21.38265016 24.09784377 21.34972569 27.24804733 21.30859375 30.3984375 C17.35759447 30.423136 13.40662501 30.44129673 9.45556641 30.45336914 C7.44952824 30.46087786 5.44351173 30.4735822 3.4375 30.48632812 C1.55224609 30.49116211 1.55224609 30.49116211 -0.37109375 30.49609375 C-2.11495361 30.50394897 -2.11495361 30.50394897 -3.89404297 30.51196289 C-6.69140625 30.3984375 -6.69140625 30.3984375 -8.69140625 29.3984375 C-8.77832699 25.12773192 -8.8317714 20.85725292 -8.87890625 16.5859375 C-8.90404297 15.37099609 -8.92917969 14.15605469 -8.95507812 12.90429688 C-8.96474609 11.74091797 -8.97441406 10.57753906 -8.984375 9.37890625 C-9.00008545 8.30535889 -9.0157959 7.23181152 -9.03198242 6.12573242 C-8.69140625 3.3984375 -8.69140625 3.3984375 -7.52880859 1.54956055 C-4.9551675 -0.06281226 -3.02540158 0.01004719 0 0 Z " fill="#090D0F" transform="translate(661.69140625,203.6015625)"/>
<path d="M0 0 C1.10923828 -0.00386719 2.21847656 -0.00773437 3.36132812 -0.01171875 C4.51955078 -0.00011719 5.67777344 0.01148438 6.87109375 0.0234375 C8.03318359 0.01183594 9.19527344 0.00023437 10.39257812 -0.01171875 C11.50052734 -0.00785156 12.60847656 -0.00398438 13.75 0 C15.27669312 0.00507568 15.27669312 0.00507568 16.83422852 0.01025391 C17.65076904 0.13835449 18.46730957 0.26645508 19.30859375 0.3984375 C21.62676022 3.87568721 21.55485124 5.24301293 21.5390625 9.34375 C21.53712891 10.50261719 21.53519531 11.66148437 21.53320312 12.85546875 C21.51483398 14.67111328 21.51483398 14.67111328 21.49609375 16.5234375 C21.49544922 17.74160156 21.49480469 18.95976562 21.49414062 20.21484375 C21.44877232 29.25825893 21.44877232 29.25825893 20.30859375 30.3984375 C18.33275547 30.49829392 16.35335897 30.52924544 14.375 30.53125 C12.56612305 30.53318359 12.56612305 30.53318359 10.72070312 30.53515625 C9.45033203 30.53128906 8.17996094 30.52742188 6.87109375 30.5234375 C5.60458984 30.52730469 4.33808594 30.53117187 3.03320312 30.53515625 C1.82599609 30.53386719 0.61878906 30.53257812 -0.625 30.53125 C-1.73931396 30.53012207 -2.85362793 30.52899414 -4.00170898 30.52783203 C-6.69140625 30.3984375 -6.69140625 30.3984375 -8.69140625 29.3984375 C-8.77832699 25.12773192 -8.8317714 20.85725292 -8.87890625 16.5859375 C-8.90404297 15.37099609 -8.92917969 14.15605469 -8.95507812 12.90429688 C-8.96474609 11.74091797 -8.97441406 10.57753906 -8.984375 9.37890625 C-9.00008545 8.30535889 -9.0157959 7.23181152 -9.03198242 6.12573242 C-8.69140625 3.3984375 -8.69140625 3.3984375 -7.52880859 1.54956055 C-4.9551675 -0.06281226 -3.02540158 0.01004719 0 0 Z " fill="#090D0F" transform="translate(661.69140625,288.6015625)"/>
<path d="M0 0 C1.10923828 0.00064453 2.21847656 0.00128906 3.36132812 0.00195312 C5.09866211 0.02612305 5.09866211 0.02612305 6.87109375 0.05078125 C8.03318359 0.04755859 9.19527344 0.04433594 10.39257812 0.04101562 C19.04167429 0.09636179 19.04167429 0.09636179 21.30859375 2.36328125 C21.55151367 5.05297852 21.55151367 5.05297852 21.5390625 8.4296875 C21.53712891 9.63689453 21.53519531 10.84410156 21.53320312 12.08789062 C21.51483398 13.98764648 21.51483398 13.98764648 21.49609375 15.92578125 C21.49544922 17.19615234 21.49480469 18.46652344 21.49414062 19.77539062 C21.44869428 29.22318072 21.44869428 29.22318072 20.30859375 30.36328125 C15.83527417 30.61708359 11.35075915 30.54850846 6.87109375 30.55078125 C5.60458984 30.56302734 4.33808594 30.57527344 3.03320312 30.58789062 C1.82599609 30.58982422 0.61878906 30.59175781 -0.625 30.59375 C-2.29647095 30.59991333 -2.29647095 30.59991333 -4.00170898 30.60620117 C-6.69140625 30.36328125 -6.69140625 30.36328125 -8.69140625 28.36328125 C-9.14956613 24.23576977 -9.01541483 20.07577357 -9.00390625 15.92578125 C-9.02001953 14.76755859 -9.03613281 13.60933594 -9.05273438 12.41601562 C-9.05337891 11.30677734 -9.05402344 10.19753906 -9.0546875 9.0546875 C-9.05766846 8.03576416 -9.06064941 7.01684082 -9.0637207 5.96704102 C-8.69140625 3.36328125 -8.69140625 3.36328125 -7.52441406 1.53027344 C-4.95076195 -0.10825308 -3.03776675 -0.00888728 0 0 Z " fill="#090D0F" transform="translate(661.69140625,246.63671875)"/>
<path d="M0 0 C1.15886719 0.00837891 2.31773437 0.01675781 3.51171875 0.02539062 C4.72214844 0.05439453 5.93257812 0.08339844 7.1796875 0.11328125 C9.00693359 0.1277832 9.00693359 0.1277832 10.87109375 0.14257812 C19.88707386 0.25816761 19.88707386 0.25816761 21.0546875 1.42578125 C21.14244355 3.57136952 21.16163969 5.71982546 21.15234375 7.8671875 C21.14912109 9.17236328 21.14589844 10.47753906 21.14257812 11.82226562 C21.13422151 13.21093815 21.12575655 14.59961002 21.1171875 15.98828125 C21.11217416 17.38085781 21.10761097 18.77343606 21.10351562 20.16601562 C21.09168184 23.58597995 21.0751963 27.00585969 21.0546875 30.42578125 C16.61731038 30.51268378 12.18015116 30.56614051 7.7421875 30.61328125 C5.84823242 30.65098633 5.84823242 30.65098633 3.91601562 30.68945312 C2.10327148 30.70395508 2.10327148 30.70395508 0.25390625 30.71875 C-1.41925659 30.74231567 -1.41925659 30.74231567 -3.1262207 30.76635742 C-5.9453125 30.42578125 -5.9453125 30.42578125 -7.80786133 29.23144531 C-9.33735729 26.80342382 -9.33325245 25.10377019 -9.34375 22.2421875 C-9.34761719 21.23220703 -9.35148438 20.22222656 -9.35546875 19.18164062 C-9.34386719 18.12783203 -9.33226562 17.07402344 -9.3203125 15.98828125 C-9.33191406 14.93833984 -9.34351563 13.88839844 -9.35546875 12.80664062 C-9.35160156 11.79537109 -9.34773437 10.78410156 -9.34375 9.7421875 C-9.34036621 8.81865479 -9.33698242 7.89512207 -9.33349609 6.94360352 C-8.41328464 0.97496155 -5.7023278 -0.07791947 0 0 Z " fill="#090D0F" transform="translate(605.9453125,246.57421875)"/>
<path d="M0 0 C1.12148438 0.00322266 2.24296875 0.00644531 3.3984375 0.00976562 C4.5740625 0.01814453 5.7496875 0.02652344 6.9609375 0.03515625 C8.14429688 0.03966797 9.32765625 0.04417969 10.546875 0.04882812 C13.47661257 0.06064158 16.40625022 0.07711367 19.3359375 0.09765625 C20.74505846 2.91589817 20.44777303 5.27016907 20.43359375 8.41796875 C20.43037109 9.67480469 20.42714844 10.93164062 20.42382812 12.2265625 C20.41544922 13.54527344 20.40707031 14.86398438 20.3984375 16.22265625 C20.39342239 17.56249836 20.38885951 18.90234225 20.38476562 20.2421875 C20.37294836 23.52738831 20.35647367 26.81250022 20.3359375 30.09765625 C16.38496772 30.14705287 12.4341172 30.1833738 8.48291016 30.20751953 C6.4768239 30.22253732 4.47082426 30.24794606 2.46484375 30.2734375 C1.20800781 30.27988281 -0.04882812 30.28632813 -1.34375 30.29296875 C-2.50632324 30.30344238 -3.66889648 30.31391602 -4.86669922 30.32470703 C-7.6640625 30.09765625 -7.6640625 30.09765625 -9.6640625 28.09765625 C-9.92285156 25.82275391 -9.92285156 25.82275391 -9.9296875 23.01171875 C-9.93226563 21.99851563 -9.93484375 20.9853125 -9.9375 19.94140625 C-9.92976562 18.87921875 -9.92203125 17.81703125 -9.9140625 16.72265625 C-9.92179688 15.66820312 -9.92953125 14.61375 -9.9375 13.52734375 C-9.93492187 12.5115625 -9.93234375 11.49578125 -9.9296875 10.44921875 C-9.92743164 9.51932129 -9.92517578 8.58942383 -9.92285156 7.63134766 C-9.65062631 4.96610838 -9.10451637 3.34336825 -7.6640625 1.09765625 C-5.00228029 -0.23323485 -2.97666854 -0.01503368 0 0 Z " fill="#090D0F" transform="translate(606.6640625,203.90234375)"/>
<path d="M0 0 C1.12148438 0.00322266 2.24296875 0.00644531 3.3984375 0.00976562 C4.5740625 0.01814453 5.7496875 0.02652344 6.9609375 0.03515625 C8.14429688 0.03966797 9.32765625 0.04417969 10.546875 0.04882812 C13.47661257 0.06064158 16.40625022 0.07711367 19.3359375 0.09765625 C20.74505846 2.91589817 20.44777303 5.27016907 20.43359375 8.41796875 C20.43037109 9.67480469 20.42714844 10.93164062 20.42382812 12.2265625 C20.41544922 13.54527344 20.40707031 14.86398437 20.3984375 16.22265625 C20.39342239 17.56249836 20.38885951 18.90234225 20.38476562 20.2421875 C20.37294836 23.52738831 20.35647367 26.81250022 20.3359375 30.09765625 C15.89856038 30.18455878 11.46140116 30.23801551 7.0234375 30.28515625 C5.12948242 30.32286133 5.12948242 30.32286133 3.19726562 30.36132812 C1.38452148 30.37583008 1.38452148 30.37583008 -0.46484375 30.390625 C-2.13800659 30.41419067 -2.13800659 30.41419067 -3.8449707 30.43823242 C-6.6640625 30.09765625 -6.6640625 30.09765625 -8.52880859 28.88964844 C-10.02989833 26.52018637 -10.03681249 24.92967481 -10.02734375 22.1328125 C-10.02669922 21.16794922 -10.02605469 20.20308594 -10.02539062 19.20898438 C-10.00927734 18.20287109 -9.99316406 17.19675781 -9.9765625 16.16015625 C-9.97978516 15.15791016 -9.98300781 14.15566406 -9.98632812 13.12304688 C-9.92422988 4.66074952 -9.92422988 4.66074952 -7.6640625 1.09765625 C-5.00228029 -0.23323485 -2.97666854 -0.01503368 0 0 Z " fill="#090D0F" transform="translate(606.6640625,288.90234375)"/>
<path d="M0 0 C1.10091476 0.00022659 2.20182953 0.00045319 3.33610535 0.00068665 C4.52367935 0.0161705 5.71125336 0.03165436 6.93481445 0.04760742 C8.15135208 0.05185226 9.36788971 0.05609711 10.62129211 0.06047058 C14.51378341 0.07728766 18.40576041 0.11494659 22.2980957 0.15307617 C24.93415594 0.16811904 27.57022429 0.18180813 30.20629883 0.1940918 C36.6745738 0.22720118 43.14254801 0.27743113 49.6105957 0.34057617 C50.9873705 3.09412577 50.74029259 5.32898027 50.7434082 8.40698242 C50.74469727 9.61418945 50.74598633 10.82139648 50.74731445 12.06518555 C50.74344727 13.33168945 50.73958008 14.59819336 50.7355957 15.90307617 C50.74139648 17.80863281 50.74139648 17.80863281 50.74731445 19.75268555 C50.74602539 20.95860352 50.74473633 22.16452148 50.7434082 23.40698242 C50.74228027 24.52016846 50.74115234 25.63335449 50.73999023 26.78027344 C50.6105957 29.34057617 50.6105957 29.34057617 49.6105957 30.34057617 C47.90816867 30.44461087 46.20143916 30.47910826 44.49584961 30.48583984 C43.40446686 30.4922197 42.31308411 30.49859955 41.18862915 30.50517273 C39.40590103 30.50684196 39.40590103 30.50684196 37.5871582 30.50854492 C36.3749057 30.51187332 35.1626532 30.51520172 33.91366577 30.51863098 C31.34291973 30.52370579 28.77216706 30.52603914 26.20141602 30.52587891 C22.25957408 30.52806289 18.31801296 30.54620618 14.3762207 30.56518555 C11.88403417 30.56811979 9.39184629 30.57010438 6.8996582 30.57104492 C5.71522125 30.57823044 4.5307843 30.58541595 3.31045532 30.59281921 C1.66392471 30.58820427 1.66392471 30.58820427 -0.01586914 30.58349609 C-1.46695572 30.58563362 -1.46695572 30.58563362 -2.94735718 30.58781433 C-5.3894043 30.34057617 -5.3894043 30.34057617 -8.3894043 28.34057617 C-8.77758789 25.86621094 -8.77758789 25.86621094 -8.7878418 22.78198242 C-8.79170898 21.6740332 -8.79557617 20.56608398 -8.79956055 19.42456055 C-8.78795898 18.2624707 -8.77635742 17.10038086 -8.7644043 15.90307617 C-8.77600586 14.74485352 -8.78760742 13.58663086 -8.79956055 12.39331055 C-8.79569336 11.28407227 -8.79182617 10.17483398 -8.7878418 9.03198242 C-8.78445801 8.01305908 -8.78107422 6.99413574 -8.77758789 5.94433594 C-7.97869827 0.58574613 -4.97418562 -0.03414773 0 0 Z M-3.3894043 7.34057617 C-3.56119481 10.23189794 -3.621699 13.01499682 -3.5769043 15.90307617 C-3.57625977 16.69649414 -3.57561523 17.48991211 -3.57495117 18.30737305 C-3.91039887 22.13297416 -3.91039887 22.13297416 -2.3894043 25.34057617 C-0.8852169 25.43369507 0.62330926 25.45803645 2.13037109 25.45410156 C3.09129166 25.45402603 4.05221222 25.4539505 5.04225159 25.45387268 C6.08703171 25.4487114 7.13181183 25.44355011 8.20825195 25.43823242 C9.80424477 25.43611 9.80424477 25.43611 11.43247986 25.4339447 C14.84604654 25.42832681 18.2595487 25.41577128 21.6730957 25.40307617 C23.98103747 25.39806348 26.28898025 25.39350017 28.59692383 25.3894043 C34.26816997 25.37835157 39.93937823 25.36159604 45.6105957 25.34057617 C45.63948085 22.19476194 45.65735493 19.04898148 45.6730957 15.90307617 C45.68566406 14.55632812 45.68566406 14.55632812 45.69848633 13.18237305 C45.70170898 12.32836914 45.70493164 11.47436523 45.70825195 10.59448242 C45.71348877 9.80372314 45.71872559 9.01296387 45.72412109 8.19824219 C45.8155548 6.32464929 45.8155548 6.32464929 44.6105957 5.34057617 C43.1786871 5.2372569 41.74176767 5.20207732 40.30615234 5.1953125 C39.39172867 5.18893265 38.47730499 5.1825528 37.53517151 5.17597961 C36.54041306 5.17486679 35.5456546 5.17375397 34.52075195 5.17260742 C32.9984623 5.16761482 32.9984623 5.16761482 31.44541931 5.16252136 C29.29418391 5.15744767 27.1429406 5.15511317 24.99169922 5.15527344 C21.69070535 5.15308783 18.39004595 5.1349391 15.08911133 5.1159668 C13.00382602 5.11303286 10.91853911 5.11104807 8.83325195 5.11010742 C7.84051773 5.10292191 6.84778351 5.09573639 5.82496643 5.08833313 C4.44860268 5.09294807 4.44860268 5.09294807 3.04443359 5.09765625 C2.23470596 5.09623123 1.42497833 5.09480621 0.5907135 5.09333801 C-1.62200548 5.16381125 -1.62200548 5.16381125 -3.3894043 7.34057617 Z " fill="#090D0F" transform="translate(499.389404296875,389.659423828125)"/>
<path d="M0 0 C0.97040726 0.00888245 1.94081451 0.01776489 2.94062805 0.0269165 C4.04154282 0.02721863 5.14245758 0.02752075 6.2767334 0.02783203 C7.4643074 0.04847717 8.65188141 0.06912231 9.8754425 0.09039307 C11.70024895 0.09888275 11.70024895 0.09888275 13.56192017 0.10754395 C17.4545852 0.12996772 21.34633605 0.18017793 25.23872375 0.23101807 C27.87477819 0.25107518 30.51084702 0.26932731 33.14692688 0.28570557 C39.61533873 0.32985234 46.08321595 0.39682519 52.55122375 0.48101807 C53.92799855 3.23456766 53.68092064 5.46942216 53.68403625 8.54742432 C53.68532532 9.75463135 53.68661438 10.96183838 53.6879425 12.20562744 C53.68407532 13.47213135 53.68020813 14.73863525 53.67622375 16.04351807 C53.68202454 17.94907471 53.68202454 17.94907471 53.6879425 19.89312744 C53.68665344 21.09904541 53.68536438 22.30496338 53.68403625 23.54742432 C53.68290833 24.66061035 53.6817804 25.77379639 53.68061829 26.92071533 C53.55122375 29.48101807 53.55122375 29.48101807 52.55122375 30.48101807 C50.84879672 30.58505277 49.14206721 30.61955015 47.43647766 30.62628174 C46.34509491 30.63266159 45.25371216 30.63904144 44.1292572 30.64561462 C42.34652908 30.64728386 42.34652908 30.64728386 40.52778625 30.64898682 C39.31553375 30.65231522 38.10328125 30.65564362 36.85429382 30.65907288 C34.28354778 30.66414768 31.71279512 30.66648103 29.14204407 30.6663208 C25.20020213 30.66850478 21.25864101 30.68664808 17.31684875 30.70562744 C14.82466222 30.70856169 12.33247434 30.71054627 9.84028625 30.71148682 C8.6558493 30.71867233 7.47141235 30.72585785 6.25108337 30.73326111 C4.60455276 30.72864616 4.60455276 30.72864616 2.92475891 30.72393799 C1.47367233 30.72607552 1.47367233 30.72607552 -0.00672913 30.72825623 C-2.44877625 30.48101807 -2.44877625 30.48101807 -5.44877625 28.48101807 C-5.83695984 26.11431885 -5.83695984 26.11431885 -5.84721375 23.17633057 C-5.85108093 22.11801025 -5.85494812 21.05968994 -5.8589325 19.96929932 C-5.84733093 18.8594165 -5.83572937 17.74953369 -5.82377625 16.60601807 C-5.83537781 15.50386963 -5.84697937 14.40172119 -5.8589325 13.26617432 C-5.85506531 12.20527588 -5.85119812 11.14437744 -5.84721375 10.05133057 C-5.84382996 9.07953857 -5.84044617 8.10774658 -5.83695984 7.10650635 C-5.25871853 3.19555852 -4.04709742 0.79497953 0 0 Z M0.55122375 5.48101807 C-1.09716568 8.77779695 -0.59150362 12.42417851 -0.57377625 16.04351807 C-0.57764343 16.83693604 -0.58151062 17.630354 -0.585495 18.44781494 C-0.9531785 22.27243427 -0.9531785 22.27243427 0.55122375 25.48101807 C2.05541115 25.57413696 3.56393732 25.59847834 5.07099915 25.59454346 C6.03191971 25.59446793 6.99284027 25.5943924 7.98287964 25.59431458 C9.02765976 25.58915329 10.07243988 25.583992 11.14888 25.57867432 C12.74487282 25.5765519 12.74487282 25.5765519 14.37310791 25.5743866 C17.78667459 25.5687687 21.20017675 25.55621317 24.61372375 25.54351807 C26.92166552 25.53850537 29.22960831 25.53394207 31.53755188 25.52984619 C37.20879802 25.51879346 42.88000628 25.50203793 48.55122375 25.48101807 C48.5801089 22.33520383 48.59798298 19.18942338 48.61372375 16.04351807 C48.62629211 14.69677002 48.62629211 14.69677002 48.63911438 13.32281494 C48.64233704 12.46881104 48.64555969 11.61480713 48.64888 10.73492432 C48.65411682 9.94416504 48.65935364 9.15340576 48.66474915 8.33868408 C48.75618285 6.46509118 48.75618285 6.46509118 47.55122375 5.48101807 C46.07768028 5.38797789 44.59971785 5.36355542 43.12324524 5.36749268 C42.18234543 5.36756821 41.24144562 5.36764374 40.27203369 5.36772156 C39.24912735 5.37288284 38.22622101 5.37804413 37.1723175 5.38336182 C35.60961876 5.38548424 35.60961876 5.38548424 34.01535034 5.38764954 C30.67311282 5.39326727 27.33094119 5.40582277 23.98872375 5.41851807 C21.72895909 5.42353078 19.46919339 5.42809408 17.20942688 5.43218994 C11.65666985 5.44324246 6.10395151 5.45999783 0.55122375 5.48101807 Z " fill="#090D0F" transform="translate(496.4487762451172,342.51898193359375)"/>
<path d="M0 0 C0.97262787 0.00444122 1.94525574 0.00888245 2.94735718 0.01345825 C4.59884262 0.01368484 4.59884262 0.01368484 6.28369141 0.01391602 C7.4764267 0.02423859 8.66916199 0.03456116 9.89804077 0.04519653 C11.11599335 0.04802643 12.33394592 0.05085632 13.58880615 0.05377197 C17.4914621 0.06499647 21.3938913 0.09010531 25.29647827 0.11550903 C27.93709997 0.12553589 30.57772524 0.13466225 33.21835327 0.14285278 C39.70280607 0.16494322 46.18712598 0.19844311 52.67147827 0.24050903 C54.08059923 3.05875095 53.7833138 5.41302185 53.76913452 8.56082153 C53.76591187 9.81765747 53.76268921 11.07449341 53.7593689 12.36941528 C53.74680054 14.34748169 53.74680054 14.34748169 53.73397827 16.36550903 C53.72896317 17.70535115 53.72440028 19.04519504 53.7203064 20.38504028 C53.70848913 23.6702411 53.69201445 26.95535301 53.67147827 30.24050903 C46.40453354 30.26365685 39.13759673 30.2814366 31.87062263 30.29232121 C28.49644801 30.29754468 25.12229856 30.30463264 21.74813843 30.31594849 C17.87101568 30.32803339 13.99392887 30.33374166 10.11679077 30.33816528 C8.9021817 30.34332657 7.68757263 30.34848785 6.43615723 30.35380554 C4.75464066 30.35391884 4.75464066 30.35391884 3.03915405 30.35403442 C2.04876129 30.35625504 1.05836853 30.35847565 0.03796387 30.36076355 C-2.32852173 30.24050903 -2.32852173 30.24050903 -4.32852173 29.24050903 C-4.38635213 24.78222977 -4.42206028 20.32404624 -4.45352173 15.86550903 C-4.47027954 14.59449341 -4.48703735 13.32347778 -4.50430298 12.01394653 C-4.51074829 10.80222778 -4.5171936 9.59050903 -4.52383423 8.34207153 C-4.53954468 6.66105347 -4.53954468 6.66105347 -4.55557251 4.94607544 C-4.26305083 1.46034931 -3.54601678 0.36626202 0 0 Z M0.67147827 5.24050903 C-0.97691117 8.53728791 -0.47124911 12.18366948 -0.45352173 15.80300903 C-0.45738892 16.596427 -0.4612561 17.38984497 -0.46524048 18.20730591 C-0.83292398 22.03192524 -0.83292398 22.03192524 0.67147827 25.24050903 C2.17566567 25.33362793 3.68419183 25.35796931 5.19125366 25.35403442 C6.15217422 25.35395889 7.11309479 25.35388336 8.10313416 25.35380554 C9.14791428 25.34864426 10.1926944 25.34348297 11.26913452 25.33816528 C12.86512733 25.33604286 12.86512733 25.33604286 14.49336243 25.33387756 C17.9069291 25.32825967 21.32043127 25.31570414 24.73397827 25.30300903 C27.04192004 25.29799634 29.34986282 25.29343303 31.6578064 25.28933716 C37.32905254 25.27828443 43.0002608 25.2615289 48.67147827 25.24050903 C48.70036341 22.0946948 48.7182375 18.94891434 48.73397827 15.80300903 C48.74654663 14.45626099 48.74654663 14.45626099 48.7593689 13.08230591 C48.76259155 12.228302 48.76581421 11.3742981 48.76913452 10.49441528 C48.77437134 9.70365601 48.77960815 8.91289673 48.78500366 8.09817505 C48.87643736 6.22458215 48.87643736 6.22458215 47.67147827 5.24050903 C46.19793479 5.14746885 44.71997236 5.12304638 43.24349976 5.12698364 C42.30259995 5.12705917 41.36170013 5.1271347 40.39228821 5.12721252 C39.36938187 5.13237381 38.34647552 5.1375351 37.29257202 5.14285278 C35.72987328 5.1449752 35.72987328 5.1449752 34.13560486 5.1471405 C30.79336733 5.15275823 27.4511957 5.16531373 24.10897827 5.17800903 C21.84921361 5.18302175 19.5894479 5.18758505 17.3296814 5.19168091 C11.77692437 5.20273342 6.22420602 5.21948879 0.67147827 5.24050903 Z " fill="#090D0F" transform="translate(735.3285217285156,342.7594909667969)"/>
<path d="M0 0 C1.10091476 0.00022659 2.20182953 0.00045319 3.33610535 0.00068665 C4.52367935 0.0161705 5.71125336 0.03165436 6.93481445 0.04760742 C8.15135208 0.05185226 9.36788971 0.05609711 10.62129211 0.06047058 C14.51378341 0.07728766 18.40576041 0.11494659 22.2980957 0.15307617 C24.93415594 0.16811904 27.57022429 0.18180813 30.20629883 0.1940918 C36.6745738 0.22720118 43.14254801 0.27743113 49.6105957 0.34057617 C50.9873705 3.09412577 50.74029259 5.32898027 50.7434082 8.40698242 C50.74469727 9.61418945 50.74598633 10.82139648 50.74731445 12.06518555 C50.74344727 13.33168945 50.73958008 14.59819336 50.7355957 15.90307617 C50.74139648 17.80863281 50.74139648 17.80863281 50.74731445 19.75268555 C50.74602539 20.95860352 50.74473633 22.16452148 50.7434082 23.40698242 C50.74228027 24.52016846 50.74115234 25.63335449 50.73999023 26.78027344 C50.6105957 29.34057617 50.6105957 29.34057617 49.6105957 30.34057617 C47.90816867 30.44461087 46.20143916 30.47910826 44.49584961 30.48583984 C43.40446686 30.4922197 42.31308411 30.49859955 41.18862915 30.50517273 C39.40590103 30.50684196 39.40590103 30.50684196 37.5871582 30.50854492 C36.3749057 30.51187332 35.1626532 30.51520172 33.91366577 30.51863098 C31.34291973 30.52370579 28.77216706 30.52603914 26.20141602 30.52587891 C22.25957408 30.52806289 18.31801296 30.54620618 14.3762207 30.56518555 C11.88403417 30.56811979 9.39184629 30.57010438 6.8996582 30.57104492 C5.71522125 30.57823044 4.5307843 30.58541595 3.31045532 30.59281921 C1.66392471 30.58820427 1.66392471 30.58820427 -0.01586914 30.58349609 C-1.46695572 30.58563362 -1.46695572 30.58563362 -2.94735718 30.58781433 C-5.3894043 30.34057617 -5.3894043 30.34057617 -8.3894043 28.34057617 C-8.77758789 25.86621094 -8.77758789 25.86621094 -8.7878418 22.78198242 C-8.79170898 21.6740332 -8.79557617 20.56608398 -8.79956055 19.42456055 C-8.78795898 18.2624707 -8.77635742 17.10038086 -8.7644043 15.90307617 C-8.77600586 14.74485352 -8.78760742 13.58663086 -8.79956055 12.39331055 C-8.79569336 11.28407227 -8.79182617 10.17483398 -8.7878418 9.03198242 C-8.78445801 8.01305908 -8.78107422 6.99413574 -8.77758789 5.94433594 C-7.97869827 0.58574613 -4.97418562 -0.03414773 0 0 Z M-3.3894043 6.34057617 C-3.6822017 8.26012818 -3.6822017 8.26012818 -3.61987305 10.43823242 C-3.61793945 11.23938477 -3.61600586 12.04053711 -3.61401367 12.8659668 C-3.59564453 14.12183594 -3.59564453 14.12183594 -3.5769043 15.40307617 C-3.57625977 16.24418945 -3.57561523 17.08530273 -3.57495117 17.9519043 C-3.94247587 21.96573485 -3.94247587 21.96573485 -2.3894043 25.34057617 C-0.8852169 25.43369507 0.62330926 25.45803645 2.13037109 25.45410156 C3.09129166 25.45402603 4.05221222 25.4539505 5.04225159 25.45387268 C6.08703171 25.4487114 7.13181183 25.44355011 8.20825195 25.43823242 C9.80424477 25.43611 9.80424477 25.43611 11.43247986 25.4339447 C14.84604654 25.42832681 18.2595487 25.41577128 21.6730957 25.40307617 C23.98103747 25.39806348 26.28898025 25.39350017 28.59692383 25.3894043 C34.26816997 25.37835157 39.93937823 25.36159604 45.6105957 25.34057617 C45.63955546 22.21559554 45.65738054 19.09064927 45.6730957 15.96557617 C45.68566406 14.63139648 45.68566406 14.63139648 45.69848633 13.27026367 C45.70170898 12.41948242 45.70493164 11.56870117 45.70825195 10.69213867 C45.71348877 9.90661621 45.71872559 9.12109375 45.72412109 8.31176758 C45.73633523 6.26284949 45.73633523 6.26284949 44.6105957 4.34057617 C38.09614366 4.28998227 31.58174202 4.25488761 25.06713867 4.23071289 C22.8496715 4.22063793 20.63221765 4.20697758 18.41479492 4.18969727 C15.23263259 4.16551454 12.05064546 4.1541082 8.8684082 4.14526367 C7.87253693 4.1349411 6.87666565 4.12461853 5.85061646 4.11398315 C4.92981293 4.11383209 4.0090094 4.11368103 3.06030273 4.11352539 C1.84118698 4.10686356 1.84118698 4.10686356 0.59744263 4.10006714 C-1.62153105 4.16136497 -1.62153105 4.16136497 -3.3894043 6.34057617 Z " fill="#090D0F" transform="translate(499.389404296875,248.659423828125)"/>
<path d="M0 0 C1.10091476 0.00022659 2.20182953 0.00045319 3.33610535 0.00068665 C4.52367935 0.0161705 5.71125336 0.03165436 6.93481445 0.04760742 C8.15135208 0.05185226 9.36788971 0.05609711 10.62129211 0.06047058 C14.51378341 0.07728766 18.40576041 0.11494659 22.2980957 0.15307617 C24.93415594 0.16811904 27.57022429 0.18180813 30.20629883 0.1940918 C36.6745738 0.22720118 43.14254801 0.27743113 49.6105957 0.34057617 C50.9873705 3.09412577 50.74029259 5.32898027 50.7434082 8.40698242 C50.74469727 9.61418945 50.74598633 10.82139648 50.74731445 12.06518555 C50.74344727 13.33168945 50.73958008 14.59819336 50.7355957 15.90307617 C50.74139648 17.80863281 50.74139648 17.80863281 50.74731445 19.75268555 C50.74602539 20.95860352 50.74473633 22.16452148 50.7434082 23.40698242 C50.74228027 24.52016846 50.74115234 25.63335449 50.73999023 26.78027344 C50.6105957 29.34057617 50.6105957 29.34057617 49.6105957 30.34057617 C47.90816867 30.44461087 46.20143916 30.47910826 44.49584961 30.48583984 C43.40446686 30.4922197 42.31308411 30.49859955 41.18862915 30.50517273 C39.40590103 30.50684196 39.40590103 30.50684196 37.5871582 30.50854492 C36.3749057 30.51187332 35.1626532 30.51520172 33.91366577 30.51863098 C31.34291973 30.52370579 28.77216706 30.52603914 26.20141602 30.52587891 C22.25957408 30.52806289 18.31801296 30.54620618 14.3762207 30.56518555 C11.88403417 30.56811979 9.39184629 30.57010438 6.8996582 30.57104492 C5.71522125 30.57823044 4.5307843 30.58541595 3.31045532 30.59281921 C1.66392471 30.58820427 1.66392471 30.58820427 -0.01586914 30.58349609 C-1.46695572 30.58563362 -1.46695572 30.58563362 -2.94735718 30.58781433 C-5.3894043 30.34057617 -5.3894043 30.34057617 -8.3894043 28.34057617 C-8.77758789 25.86621094 -8.77758789 25.86621094 -8.7878418 22.78198242 C-8.79170898 21.6740332 -8.79557617 20.56608398 -8.79956055 19.42456055 C-8.78795898 18.2624707 -8.77635742 17.10038086 -8.7644043 15.90307617 C-8.77600586 14.74485352 -8.78760742 13.58663086 -8.79956055 12.39331055 C-8.79569336 11.28407227 -8.79182617 10.17483398 -8.7878418 9.03198242 C-8.78445801 8.01305908 -8.78107422 6.99413574 -8.77758789 5.94433594 C-7.97869827 0.58574613 -4.97418562 -0.03414773 0 0 Z M-3.3894043 6.34057617 C-3.6822017 8.26012818 -3.6822017 8.26012818 -3.61987305 10.43823242 C-3.61793945 11.23938477 -3.61600586 12.04053711 -3.61401367 12.8659668 C-3.59564453 14.12183594 -3.59564453 14.12183594 -3.5769043 15.40307617 C-3.57625977 16.24418945 -3.57561523 17.08530273 -3.57495117 17.9519043 C-3.94247587 21.96573485 -3.94247587 21.96573485 -2.3894043 25.34057617 C-0.8852169 25.43369507 0.62330926 25.45803645 2.13037109 25.45410156 C3.09129166 25.45402603 4.05221222 25.4539505 5.04225159 25.45387268 C6.08703171 25.4487114 7.13181183 25.44355011 8.20825195 25.43823242 C9.80424477 25.43611 9.80424477 25.43611 11.43247986 25.4339447 C14.84604654 25.42832681 18.2595487 25.41577128 21.6730957 25.40307617 C23.98103747 25.39806348 26.28898025 25.39350017 28.59692383 25.3894043 C34.26816997 25.37835157 39.93937823 25.36159604 45.6105957 25.34057617 C45.63947717 22.0280943 45.65735369 18.7156445 45.6730957 15.40307617 C45.68566406 13.98478516 45.68566406 13.98478516 45.69848633 12.5378418 C45.70170898 11.6387207 45.70493164 10.73959961 45.70825195 9.81323242 C45.71348877 8.98057861 45.71872559 8.1479248 45.72412109 7.29003906 C45.82702862 5.33540819 45.82702862 5.33540819 44.6105957 4.34057617 C43.1786871 4.2372569 41.74176767 4.20207732 40.30615234 4.1953125 C39.39172867 4.18893265 38.47730499 4.1825528 37.53517151 4.17597961 C36.54041306 4.17486679 35.5456546 4.17375397 34.52075195 4.17260742 C32.9984623 4.16761482 32.9984623 4.16761482 31.44541931 4.16252136 C29.29418391 4.15744767 27.1429406 4.15511317 24.99169922 4.15527344 C21.69070535 4.15308783 18.39004595 4.1349391 15.08911133 4.1159668 C13.00382602 4.11303286 10.91853911 4.11104807 8.83325195 4.11010742 C7.84051773 4.10292191 6.84778351 4.09573639 5.82496643 4.08833313 C4.44860268 4.09294807 4.44860268 4.09294807 3.04443359 4.09765625 C2.23470596 4.09623123 1.42497833 4.09480621 0.5907135 4.09333801 C-1.62200548 4.16381125 -1.62200548 4.16381125 -3.3894043 6.34057617 Z " fill="#090D0F" transform="translate(499.389404296875,295.659423828125)"/>
<path d="M0 0 C0.97262787 0.00444122 1.94525574 0.00888245 2.94735718 0.01345825 C4.59884262 0.01368484 4.59884262 0.01368484 6.28369141 0.01391602 C7.4764267 0.02423859 8.66916199 0.03456116 9.89804077 0.04519653 C11.11599335 0.04802643 12.33394592 0.05085632 13.58880615 0.05377197 C17.4914621 0.06499647 21.3938913 0.09010531 25.29647827 0.11550903 C27.93709997 0.12553589 30.57772524 0.13466225 33.21835327 0.14285278 C39.70280607 0.16494322 46.18712598 0.19844311 52.67147827 0.24050903 C54.08059923 3.05875095 53.7833138 5.41302185 53.76913452 8.56082153 C53.76591187 9.81765747 53.76268921 11.07449341 53.7593689 12.36941528 C53.74680054 14.34748169 53.74680054 14.34748169 53.73397827 16.36550903 C53.72896317 17.70535115 53.72440028 19.04519504 53.7203064 20.38504028 C53.70848913 23.6702411 53.69201445 26.95535301 53.67147827 30.24050903 C46.40453354 30.26365685 39.13759673 30.2814366 31.87062263 30.29232121 C28.49644801 30.29754468 25.12229856 30.30463264 21.74813843 30.31594849 C17.87101568 30.32803339 13.99392887 30.33374166 10.11679077 30.33816528 C8.9021817 30.34332657 7.68757263 30.34848785 6.43615723 30.35380554 C4.75464066 30.35391884 4.75464066 30.35391884 3.03915405 30.35403442 C2.04876129 30.35625504 1.05836853 30.35847565 0.03796387 30.36076355 C-2.32852173 30.24050903 -2.32852173 30.24050903 -4.32852173 29.24050903 C-4.38635213 24.78222977 -4.42206028 20.32404624 -4.45352173 15.86550903 C-4.47027954 14.59449341 -4.48703735 13.32347778 -4.50430298 12.01394653 C-4.51074829 10.80222778 -4.5171936 9.59050903 -4.52383423 8.34207153 C-4.53954468 6.66105347 -4.53954468 6.66105347 -4.55557251 4.94607544 C-4.26305083 1.46034931 -3.54601678 0.36626202 0 0 Z M-0.32852173 7.24050903 C-0.73840221 9.16615765 -0.73840221 9.16615765 -0.62149048 11.25222778 C-0.61182251 12.009552 -0.60215454 12.76687622 -0.5921936 13.54714966 C-0.56705688 14.33283325 -0.54192017 15.11851685 -0.51602173 15.92800903 C-0.50248657 16.72529419 -0.48895142 17.52257935 -0.4750061 18.34402466 C-0.43969262 20.30980871 -0.3858862 22.27524486 -0.32852173 24.24050903 C2.06730173 25.43842076 3.53925365 25.36118343 6.21298218 25.35403442 C7.6242186 25.35392113 7.6242186 25.35392113 9.06396484 25.35380554 C10.59058243 25.34606361 10.59058243 25.34606361 12.14804077 25.33816528 C13.18842499 25.33675034 14.2288092 25.33533539 15.30072021 25.33387756 C18.63266848 25.3282677 21.96455022 25.31571351 25.29647827 25.30300903 C27.55168564 25.2979953 29.80689405 25.29343218 32.06210327 25.28933716 C37.59858441 25.27829506 43.13502659 25.2615473 48.67147827 25.24050903 C48.72939671 22.11558652 48.76504573 18.99080138 48.79647827 15.86550903 C48.81323608 14.97605591 48.8299939 14.08660278 48.84725952 13.17019653 C48.85370483 12.31941528 48.86015015 11.46863403 48.86679077 10.59207153 C48.8772644 9.80654907 48.88773804 9.02102661 48.89852905 8.21170044 C48.85137954 6.00604403 48.85137954 6.00604403 46.67147827 4.24050903 C44.71451084 3.92872821 44.71451084 3.92872821 42.45297241 3.96585083 C41.58189346 3.95631882 40.71081451 3.9467868 39.81333923 3.93696594 C38.87062668 3.93787735 37.92791412 3.93878876 36.95663452 3.93972778 C35.98995346 3.93544266 35.0232724 3.93115753 34.02729797 3.92674255 C31.98039535 3.92099291 29.93347228 3.92050364 27.88656616 3.92483521 C24.75006314 3.92799284 21.61450503 3.90455182 18.4781189 3.87918091 C16.49179197 3.8769078 14.50546249 3.87620447 12.51913452 3.87722778 C11.5784462 3.86801804 10.63775787 3.85880829 9.66856384 3.84931946 C8.35721718 3.85866264 8.35721718 3.85866264 7.01937866 3.86819458 C6.25041763 3.86756516 5.4814566 3.86693573 4.68919373 3.86628723 C2.14003199 4.33907535 1.25099671 5.22360922 -0.32852173 7.24050903 Z " fill="#090D0F" transform="translate(735.3285217285156,295.7594909667969)"/>
<path d="M0 0 C0.97262787 0.00444122 1.94525574 0.00888245 2.94735718 0.01345825 C4.59884262 0.01368484 4.59884262 0.01368484 6.28369141 0.01391602 C7.4764267 0.02423859 8.66916199 0.03456116 9.89804077 0.04519653 C11.11599335 0.04802643 12.33394592 0.05085632 13.58880615 0.05377197 C17.4914621 0.06499647 21.3938913 0.09010531 25.29647827 0.11550903 C27.93709997 0.12553589 30.57772524 0.13466225 33.21835327 0.14285278 C39.70280607 0.16494322 46.18712598 0.19844311 52.67147827 0.24050903 C54.08059923 3.05875095 53.7833138 5.41302185 53.76913452 8.56082153 C53.76591187 9.81765747 53.76268921 11.07449341 53.7593689 12.36941528 C53.74680054 14.34748169 53.74680054 14.34748169 53.73397827 16.36550903 C53.72896317 17.70535115 53.72440028 19.04519504 53.7203064 20.38504028 C53.70848913 23.6702411 53.69201445 26.95535301 53.67147827 30.24050903 C46.40455499 30.28680453 39.1376634 30.32236396 31.87062263 30.34413338 C28.49640833 30.35458045 25.12229475 30.36875628 21.74813843 30.39138794 C17.87099509 30.41555788 13.9939955 30.42697414 10.11679077 30.43582153 C8.9021817 30.4461441 7.68757263 30.45646667 6.43615723 30.46710205 C5.31514618 30.46725311 4.19413513 30.46740417 3.03915405 30.46755981 C2.04876129 30.47200104 1.05836853 30.47644226 0.03796387 30.48101807 C-2.32852173 30.24050903 -2.32852173 30.24050903 -4.32852173 28.24050903 C-4.58731079 25.65847778 -4.58731079 25.65847778 -4.59414673 22.42800903 C-4.59672485 21.27043091 -4.59930298 20.11285278 -4.60195923 18.92019653 C-4.59422485 17.70589966 -4.58649048 16.49160278 -4.57852173 15.24050903 C-4.5862561 14.02621216 -4.59399048 12.81191528 -4.60195923 11.56082153 C-4.5993811 10.40324341 -4.59680298 9.24566528 -4.59414673 8.05300903 C-4.59189087 6.98695435 -4.58963501 5.92089966 -4.58731079 4.82254028 C-4.24539802 1.41115399 -3.45970253 0.35734677 0 0 Z M-0.32852173 7.24050903 C-0.57245127 10.1967027 -0.65631988 12.91890403 -0.57852173 15.86550903 C-0.57336548 16.65441528 -0.56820923 17.44332153 -0.56289673 18.25613403 C-0.86148792 22.05689112 -0.86148792 22.05689112 0.67147827 25.24050903 C2.17566567 25.33362793 3.68419183 25.35796931 5.19125366 25.35403442 C6.15217422 25.35395889 7.11309479 25.35388336 8.10313416 25.35380554 C9.14791428 25.34864426 10.1926944 25.34348297 11.26913452 25.33816528 C12.86512733 25.33604286 12.86512733 25.33604286 14.49336243 25.33387756 C17.9069291 25.32825967 21.32043127 25.31570414 24.73397827 25.30300903 C27.04192004 25.29799634 29.34986282 25.29343303 31.6578064 25.28933716 C37.32905254 25.27828443 43.0002608 25.2615289 48.67147827 25.24050903 C48.70035974 21.92802717 48.71823626 18.61557736 48.73397827 15.30300903 C48.74654663 13.88471802 48.74654663 13.88471802 48.7593689 12.43777466 C48.76259155 11.53865356 48.76581421 10.63953247 48.76913452 9.71316528 C48.77437134 8.88051147 48.77960815 8.04785767 48.78500366 7.18997192 C48.88791119 5.23534105 48.88791119 5.23534105 47.67147827 4.24050903 C46.27572429 4.13211605 44.8746049 4.09150404 43.47470093 4.07937622 C42.5835257 4.06976868 41.69235046 4.06016113 40.77416992 4.05026245 C39.8044223 4.04601257 38.83467468 4.0417627 37.83554077 4.03738403 C36.84524872 4.03168396 35.85495667 4.02598389 34.83465576 4.02011108 C32.73470127 4.01064503 30.63473182 4.00412076 28.53475952 4.00027466 C25.31704855 3.99057107 22.09997659 3.95956341 18.88241577 3.92800903 C16.84596125 3.92147917 14.80950214 3.91622864 12.77304077 3.91238403 C11.80734161 3.90003723 10.84164246 3.88769043 9.84667969 3.87496948 C8.50046036 3.87947113 8.50046036 3.87947113 7.12704468 3.88406372 C6.33730255 3.88041809 5.54756042 3.87677246 4.73388672 3.87301636 C2.09836523 4.34262986 1.22566064 5.08040977 -0.32852173 7.24050903 Z " fill="#090D0F" transform="translate(735.3285217285156,248.75949096679688)"/>
<path d="M0 0 C0.95900208 -0.00426498 1.91800415 -0.00852997 2.90606689 -0.01292419 C4.48179474 -0.01224442 4.48179474 -0.01224442 6.08935547 -0.0115509 C7.75064484 -0.01658882 7.75064484 -0.01658882 9.44549561 -0.02172852 C13.11585605 -0.03124758 16.78617094 -0.03318199 20.45654297 -0.03425598 C23.00097676 -0.03746745 25.54541036 -0.04083143 28.08984375 -0.04434204 C33.42627465 -0.05033539 38.76268848 -0.05222443 44.09912109 -0.05158997 C50.26974892 -0.05098876 56.44028944 -0.06154981 62.61089516 -0.07733363 C68.54559195 -0.09197379 74.480262 -0.09557837 80.41497803 -0.09498024 C82.94122678 -0.09616338 85.46747611 -0.10060374 87.99371338 -0.10831261 C91.52046033 -0.11806821 95.04698016 -0.11525215 98.57373047 -0.10920715 C100.14945831 -0.11763641 100.14945831 -0.11763641 101.75701904 -0.12623596 C103.19552216 -0.11994423 103.19552216 -0.11994423 104.66308594 -0.11352539 C105.4970993 -0.11407016 106.33111267 -0.11461493 107.19039917 -0.1151762 C109.33154297 0.13371277 109.33154297 0.13371277 112.33154297 2.13371277 C112.33154297 3.12371277 112.33154297 4.11371277 112.33154297 5.13371277 C72.73154297 5.13371277 33.13154297 5.13371277 -7.66845703 5.13371277 C-7.66845703 3.81371277 -7.66845703 2.49371277 -7.66845703 1.13371277 C-4.79133826 0.17467318 -2.98784507 0.0060037 0 0 Z " fill="#090D0F" transform="translate(588.66845703125,176.8662872314453)"/>
<path d="M0 0 C1.10589478 0.00616333 1.10589478 0.00616333 2.23413086 0.01245117 C3.0352832 0.01438477 3.83643555 0.01631836 4.66186523 0.01831055 C5.49911133 0.03055664 6.33635742 0.04280273 7.19897461 0.05541992 C8.46064453 0.05638672 8.46064453 0.05638672 9.74780273 0.05737305 C15.99624277 0.10268808 15.99624277 0.10268808 17.13647461 1.24291992 C17.22316893 2.73163852 17.24350955 4.22436492 17.23413086 5.71557617 C17.2309082 6.61469727 17.22768555 7.51381836 17.22436523 8.44018555 C17.21598633 9.38571289 17.20760742 10.33124023 17.19897461 11.30541992 C17.19446289 12.25481445 17.18995117 13.20420898 17.18530273 14.18237305 C17.17347571 16.53595057 17.15699486 18.88940469 17.13647461 21.24291992 C13.82399274 21.27180139 10.51154294 21.28967791 7.19897461 21.30541992 C6.25344727 21.31379883 5.30791992 21.32217773 4.33374023 21.33081055 C2.98505859 21.33564453 2.98505859 21.33564453 1.60913086 21.34057617 C0.36015015 21.3484314 0.36015015 21.3484314 -0.9140625 21.35644531 C-2.86352539 21.24291992 -2.86352539 21.24291992 -3.86352539 20.24291992 C-3.99020304 17.25273831 -4.04873377 14.29597884 -4.05102539 11.30541992 C-4.06327148 10.46817383 -4.07551758 9.63092773 -4.08813477 8.76831055 C-4.09006836 7.9671582 -4.09200195 7.16600586 -4.09399414 6.34057617 C-4.09810303 5.60331299 -4.10221191 4.8660498 -4.10644531 4.10644531 C-3.75335135 1.39773555 -2.70870976 0.35309396 0 0 Z " fill="#00C6F5" transform="translate(660.863525390625,250.757080078125)"/>
<path d="M0 0 C1.10589478 0.00616333 1.10589478 0.00616333 2.23413086 0.01245117 C3.0352832 0.01438477 3.83643555 0.01631836 4.66186523 0.01831055 C5.49911133 0.03055664 6.33635742 0.04280273 7.19897461 0.05541992 C8.46064453 0.05638672 8.46064453 0.05638672 9.74780273 0.05737305 C15.99624277 0.10268808 15.99624277 0.10268808 17.13647461 1.24291992 C17.22316893 2.73163852 17.24350955 4.22436492 17.23413086 5.71557617 C17.2309082 6.61469727 17.22768555 7.51381836 17.22436523 8.44018555 C17.21598633 9.38571289 17.20760742 10.33124023 17.19897461 11.30541992 C17.19446289 12.25481445 17.18995117 13.20420898 17.18530273 14.18237305 C17.17347571 16.53595057 17.15699486 18.88940469 17.13647461 21.24291992 C13.82399274 21.27180139 10.51154294 21.28967791 7.19897461 21.30541992 C6.25344727 21.31379883 5.30791992 21.32217773 4.33374023 21.33081055 C2.98505859 21.33564453 2.98505859 21.33564453 1.60913086 21.34057617 C0.36015015 21.3484314 0.36015015 21.3484314 -0.9140625 21.35644531 C-2.86352539 21.24291992 -2.86352539 21.24291992 -3.86352539 20.24291992 C-3.99020304 17.25273831 -4.04873377 14.29597884 -4.05102539 11.30541992 C-4.06327148 10.46817383 -4.07551758 9.63092773 -4.08813477 8.76831055 C-4.09006836 7.9671582 -4.09200195 7.16600586 -4.09399414 6.34057617 C-4.09810303 5.60331299 -4.10221191 4.8660498 -4.10644531 4.10644531 C-3.75335135 1.39773555 -2.70870976 0.35309396 0 0 Z " fill="#00C6F5" transform="translate(605.863525390625,250.757080078125)"/>
<path d="M0 0 C1.10589478 0.00616333 1.10589478 0.00616333 2.23413086 0.01245117 C3.0352832 0.01438477 3.83643555 0.01631836 4.66186523 0.01831055 C5.49911133 0.03055664 6.33635742 0.04280273 7.19897461 0.05541992 C8.46064453 0.05638672 8.46064453 0.05638672 9.74780273 0.05737305 C15.99624277 0.10268808 15.99624277 0.10268808 17.13647461 1.24291992 C17.22299072 2.65862115 17.24352365 4.07851493 17.23413086 5.49682617 C17.2309082 6.35083008 17.22768555 7.20483398 17.22436523 8.0847168 C17.21598633 8.98254883 17.20760742 9.88038086 17.19897461 10.80541992 C17.19446289 11.70711914 17.18995117 12.60881836 17.18530273 13.5378418 C17.17347685 15.77293306 17.15699681 18.00789429 17.13647461 20.24291992 C13.82399274 20.27180139 10.51154294 20.28967791 7.19897461 20.30541992 C6.25344727 20.31379883 5.30791992 20.32217773 4.33374023 20.33081055 C2.98505859 20.33564453 2.98505859 20.33564453 1.60913086 20.34057617 C0.36015015 20.3484314 0.36015015 20.3484314 -0.9140625 20.35644531 C-2.86352539 20.24291992 -2.86352539 20.24291992 -3.86352539 19.24291992 C-3.9901563 16.4187561 -4.04873087 13.62997199 -4.05102539 10.80541992 C-4.06327148 10.01586914 -4.07551758 9.22631836 -4.08813477 8.4128418 C-4.09339818 6.35484558 -3.98558825 4.29729983 -3.86352539 2.24291992 C-1.86352539 0.24291992 -1.86352539 0.24291992 0 0 Z " fill="#00C6F5" transform="translate(660.863525390625,293.757080078125)"/>
<path d="M0 0 C1.10589478 0.00616333 1.10589478 0.00616333 2.23413086 0.01245117 C3.0352832 0.01438477 3.83643555 0.01631836 4.66186523 0.01831055 C5.49911133 0.03055664 6.33635742 0.04280273 7.19897461 0.05541992 C8.46064453 0.05638672 8.46064453 0.05638672 9.74780273 0.05737305 C15.99624277 0.10268808 15.99624277 0.10268808 17.13647461 1.24291992 C17.22299072 2.65862115 17.24352365 4.07851493 17.23413086 5.49682617 C17.2309082 6.35083008 17.22768555 7.20483398 17.22436523 8.0847168 C17.21598633 8.98254883 17.20760742 9.88038086 17.19897461 10.80541992 C17.19446289 11.70711914 17.18995117 12.60881836 17.18530273 13.5378418 C17.17347685 15.77293306 17.15699681 18.00789429 17.13647461 20.24291992 C13.82399274 20.27180139 10.51154294 20.28967791 7.19897461 20.30541992 C6.25344727 20.31379883 5.30791992 20.32217773 4.33374023 20.33081055 C2.98505859 20.33564453 2.98505859 20.33564453 1.60913086 20.34057617 C0.36015015 20.3484314 0.36015015 20.3484314 -0.9140625 20.35644531 C-2.86352539 20.24291992 -2.86352539 20.24291992 -3.86352539 19.24291992 C-3.9901563 16.4187561 -4.04873087 13.62997199 -4.05102539 10.80541992 C-4.06327148 10.01586914 -4.07551758 9.22631836 -4.08813477 8.4128418 C-4.09339818 6.35484558 -3.98558825 4.29729983 -3.86352539 2.24291992 C-1.86352539 0.24291992 -1.86352539 0.24291992 0 0 Z " fill="#00C6F5" transform="translate(605.863525390625,293.757080078125)"/>
<path d="M0 0 C1.10589478 0.00616333 1.10589478 0.00616333 2.23413086 0.01245117 C3.0352832 0.01438477 3.83643555 0.01631836 4.66186523 0.01831055 C5.49911133 0.03055664 6.33635742 0.04280273 7.19897461 0.05541992 C8.46064453 0.05638672 8.46064453 0.05638672 9.74780273 0.05737305 C15.99624277 0.10268808 15.99624277 0.10268808 17.13647461 1.24291992 C17.22299072 2.65862115 17.24352365 4.07851493 17.23413086 5.49682617 C17.2309082 6.35083008 17.22768555 7.20483398 17.22436523 8.0847168 C17.21598633 8.98254883 17.20760742 9.88038086 17.19897461 10.80541992 C17.19446289 11.70711914 17.18995117 12.60881836 17.18530273 13.5378418 C17.17347685 15.77293306 17.15699681 18.00789429 17.13647461 20.24291992 C13.82399274 20.27180139 10.51154294 20.28967791 7.19897461 20.30541992 C6.25344727 20.31379883 5.30791992 20.32217773 4.33374023 20.33081055 C2.98505859 20.33564453 2.98505859 20.33564453 1.60913086 20.34057617 C0.36015015 20.3484314 0.36015015 20.3484314 -0.9140625 20.35644531 C-2.86352539 20.24291992 -2.86352539 20.24291992 -3.86352539 19.24291992 C-3.9901563 16.4187561 -4.04873087 13.62997199 -4.05102539 10.80541992 C-4.06327148 10.01586914 -4.07551758 9.22631836 -4.08813477 8.4128418 C-4.09339818 6.35484558 -3.98558825 4.29729983 -3.86352539 2.24291992 C-1.86352539 0.24291992 -1.86352539 0.24291992 0 0 Z " fill="#00C6F5" transform="translate(660.863525390625,208.757080078125)"/>
<path d="M0 0 C1.10589478 0.00616333 1.10589478 0.00616333 2.23413086 0.01245117 C3.0352832 0.01438477 3.83643555 0.01631836 4.66186523 0.01831055 C5.49911133 0.03055664 6.33635742 0.04280273 7.19897461 0.05541992 C8.46064453 0.05638672 8.46064453 0.05638672 9.74780273 0.05737305 C15.99624277 0.10268808 15.99624277 0.10268808 17.13647461 1.24291992 C17.22299072 2.65862115 17.24352365 4.07851493 17.23413086 5.49682617 C17.2309082 6.35083008 17.22768555 7.20483398 17.22436523 8.0847168 C17.21598633 8.98254883 17.20760742 9.88038086 17.19897461 10.80541992 C17.19446289 11.70711914 17.18995117 12.60881836 17.18530273 13.5378418 C17.17347685 15.77293306 17.15699681 18.00789429 17.13647461 20.24291992 C13.82399274 20.27180139 10.51154294 20.28967791 7.19897461 20.30541992 C6.25344727 20.31379883 5.30791992 20.32217773 4.33374023 20.33081055 C2.98505859 20.33564453 2.98505859 20.33564453 1.60913086 20.34057617 C0.36015015 20.3484314 0.36015015 20.3484314 -0.9140625 20.35644531 C-2.86352539 20.24291992 -2.86352539 20.24291992 -3.86352539 19.24291992 C-3.9901563 16.4187561 -4.04873087 13.62997199 -4.05102539 10.80541992 C-4.06327148 10.01586914 -4.07551758 9.22631836 -4.08813477 8.4128418 C-4.09339818 6.35484558 -3.98558825 4.29729983 -3.86352539 2.24291992 C-1.86352539 0.24291992 -1.86352539 0.24291992 0 0 Z " fill="#00C6F5" transform="translate(605.863525390625,208.757080078125)"/>
<path d="M0 0 C22.77 0 45.54 0 69 0 C69.99 1.98 69.99 1.98 71 4 C61.90769199 4.04628063 52.81542434 4.08184737 43.72302437 4.10362434 C39.5013425 4.11407464 35.27974105 4.12825645 31.05810547 4.15087891 C26.98622723 4.17256303 22.91442647 4.18455923 18.84249496 4.18975449 C17.28670913 4.19345824 15.73092768 4.20069046 14.17517471 4.21146011 C12.00096626 4.22591638 9.82708058 4.22798044 7.65283203 4.22705078 C6.41373077 4.231492 5.17462952 4.23593323 3.89797974 4.24050903 C1 4 1 4 -1 2 C-0.67 1.34 -0.34 0.68 0 0 Z " fill="#090D0F" transform="translate(725,210)"/>
<path d="M0 0 C22.77 0 45.54 0 69 0 C69.495 1.98 69.495 1.98 70 4 C46.9 4 23.8 4 0 4 C0 2.68 0 1.36 0 0 Z " fill="#090D0F" transform="translate(486,210)"/>
</svg>
